<?xml version="1.0" standalone="no"?>
<!DOCTYPE svg PUBLIC "-//W3C//DTD SVG 20010904//EN"
 "http://www.w3.org/TR/2001/REC-SVG-20010904/DTD/svg10.dtd">
<svg version="1.0" xmlns="http://www.w3.org/2000/svg"
 width="2554.000000pt" height="1326.000000pt" viewBox="0 0 2554.000000 1326.000000"
 preserveAspectRatio="xMidYMid meet">

<g transform="translate(0.000000,1326.000000) scale(0.100000,-0.100000)"
fill="#000000" stroke="none">
<path d="M100 8560 l0 -4540 8040 0 8040 0 0 4540 0 4540 -8040 0 -8040 0 0
-4540z m16040 0 l0 -4500 -8000 0 -8000 0 0 4500 0 4500 8000 0 8000 0 0
-4500z"/>
<path d="M8820 11100 l0 -40 740 0 c487 0 740 -3 740 -10 0 -6 33 -10 80 -10
47 0 80 -4 80 -10 0 -5 18 -10 40 -10 22 0 40 -4 40 -10 0 -5 14 -10 30 -10
17 0 30 -4 30 -10 0 -5 8 -10 18 -10 10 0 24 -9 32 -20 8 -11 21 -20 30 -20 9
0 22 -9 30 -20 8 -11 21 -20 30 -20 9 0 22 -9 30 -20 8 -11 20 -20 27 -20 19
0 143 -126 143 -145 0 -8 5 -15 10 -15 6 0 10 -9 10 -20 0 -11 5 -20 10 -20 6
0 10 -9 10 -20 0 -11 5 -20 10 -20 6 0 10 -22 10 -50 0 -27 5 -50 10 -50 6 0
10 -60 10 -160 0 -100 -4 -160 -10 -160 -6 0 -10 -27 -10 -60 0 -33 -4 -60
-10 -60 -5 0 -10 -9 -10 -20 0 -11 -4 -20 -10 -20 -5 0 -10 -9 -10 -20 0 -11
-4 -20 -10 -20 -5 0 -10 -9 -10 -20 0 -11 -4 -20 -10 -20 -5 0 -10 -8 -10 -18
0 -10 -9 -24 -20 -32 -11 -8 -20 -21 -20 -28 0 -8 -13 -27 -30 -42 -16 -15
-30 -34 -30 -42 0 -7 -9 -20 -20 -28 -11 -8 -20 -21 -20 -28 0 -7 -18 -31 -40
-52 -22 -21 -40 -44 -40 -50 0 -6 -22 -33 -50 -60 -27 -27 -50 -54 -50 -60 0
-14 -46 -60 -60 -60 -6 0 -105 -94 -220 -210 -115 -115 -214 -210 -220 -210
-6 0 -51 -40 -100 -90 -49 -49 -94 -90 -100 -90 -6 0 -33 -22 -60 -50 -27 -27
-54 -50 -60 -50 -6 0 -29 -18 -50 -40 -21 -22 -44 -40 -50 -40 -6 0 -29 -18
-50 -40 -21 -22 -44 -40 -50 -40 -6 0 -29 -18 -50 -40 -21 -22 -44 -40 -50
-40 -6 0 -33 -22 -60 -50 -27 -27 -54 -50 -60 -50 -6 0 -29 -18 -50 -40 -21
-22 -46 -40 -54 -40 -9 0 -16 -4 -16 -10 0 -5 -7 -10 -16 -10 -8 0 -33 -18
-54 -40 -21 -22 -46 -40 -54 -40 -12 0 -16 -11 -16 -50 l0 -50 230 0 c147 0
230 -4 230 -10 0 -6 50 -10 130 -10 80 0 130 -4 130 -10 0 -7 369 -10 1086
-10 1138 0 1114 -1 1114 40 0 41 23 40 -1094 40 -704 0 -1066 3 -1066 10 0 6
-50 10 -130 10 -80 0 -130 4 -130 10 0 6 -70 10 -190 10 -104 0 -190 3 -190 6
0 11 29 34 44 34 9 0 16 5 16 10 0 6 11 10 26 10 18 0 42 18 84 60 32 33 64
60 70 60 6 0 33 23 60 50 27 28 54 50 60 50 6 0 29 18 50 40 21 22 44 40 50
40 7 0 25 14 40 30 15 17 33 30 40 30 6 0 33 23 60 50 27 28 54 50 60 50 6 0
38 27 70 60 32 33 64 60 70 60 6 0 109 99 230 220 121 121 224 220 230 220 14
0 240 227 240 241 0 5 23 32 50 59 28 27 50 55 50 62 0 8 9 20 20 28 11 8 20
21 20 28 0 8 14 27 30 42 17 15 30 34 30 42 0 7 9 20 20 28 11 8 20 22 20 32
0 10 5 18 10 18 6 0 10 9 10 20 0 11 5 20 10 20 6 0 10 9 10 20 0 11 5 20 10
20 6 0 10 9 10 20 0 11 5 20 10 20 6 0 10 8 10 18 0 10 9 24 20 32 16 12 20
26 20 72 0 32 4 58 10 58 6 0 10 67 10 180 0 113 -4 180 -10 180 -5 0 -10 23
-10 50 0 28 -4 50 -10 50 -5 0 -10 9 -10 20 0 11 -4 20 -10 20 -5 0 -10 9 -10
20 0 11 -4 20 -10 20 -5 0 -10 9 -10 20 0 11 -4 20 -10 20 -5 0 -10 7 -10 15
0 19 -104 125 -123 125 -7 0 -19 9 -27 20 -8 11 -21 20 -30 20 -9 0 -22 9 -30
20 -8 11 -21 20 -30 20 -9 0 -22 9 -30 20 -8 11 -21 20 -30 20 -9 0 -22 9 -30
20 -8 11 -22 20 -32 20 -10 0 -18 5 -18 10 0 6 -13 10 -30 10 -16 0 -30 5 -30
10 0 6 -18 10 -40 10 -22 0 -40 5 -40 10 0 6 -30 10 -70 10 -40 0 -70 4 -70
10 0 7 -260 10 -760 10 l-760 0 0 -40z"/>
<path d="M14940 10090 c0 -680 -3 -1030 -10 -1030 -6 0 -10 -123 -10 -350 0
-227 -4 -350 -10 -350 -6 0 -10 -90 -10 -250 0 -160 -4 -250 -10 -250 -5 0
-10 -22 -10 -50 0 -47 2 -50 25 -50 14 0 37 11 50 25 l25 24 0 256 c0 163 4
255 10 255 6 0 10 120 10 340 0 220 4 340 10 340 7 0 10 355 10 1046 0 1136 3
1074 -54 1074 l-26 0 0 -1030z"/>
<path d="M2460 10790 c0 -6 -37 -10 -90 -10 -53 0 -90 -4 -90 -10 0 -6 -33
-10 -80 -10 -47 0 -80 -4 -80 -10 0 -6 -27 -10 -60 -10 -33 0 -60 -4 -60 -10
0 -6 -27 -10 -60 -10 -33 0 -60 -4 -60 -10 0 -6 -27 -10 -60 -10 -33 0 -60 -4
-60 -10 0 -6 -27 -10 -60 -10 -33 0 -60 -4 -60 -10 0 -5 -22 -10 -50 -10 -27
0 -50 -4 -50 -10 0 -5 -22 -10 -50 -10 -27 0 -50 -4 -50 -10 0 -6 -27 -10 -60
-10 -33 0 -60 -4 -60 -10 0 -5 -18 -10 -40 -10 -22 0 -40 -4 -40 -10 0 -5 -22
-10 -50 -10 -27 0 -50 -4 -50 -10 0 -5 -22 -10 -50 -10 -27 0 -50 -4 -50 -10
0 -6 -33 -10 -80 -10 l-80 0 0 -40 0 -40 90 0 c53 0 90 4 90 10 0 6 23 10 50
10 28 0 50 5 50 10 0 6 18 10 40 10 22 0 40 5 40 10 0 6 23 10 50 10 28 0 50
5 50 10 0 6 27 10 60 10 33 0 60 4 60 10 0 6 23 10 50 10 28 0 50 5 50 10 0 6
27 10 60 10 33 0 60 4 60 10 0 6 23 10 50 10 28 0 50 5 50 10 0 6 27 10 60 10
33 0 60 4 60 10 0 6 27 10 60 10 33 0 60 4 60 10 0 6 27 10 60 10 33 0 60 4
60 10 0 6 33 10 80 10 47 0 80 4 80 10 0 6 37 10 90 10 53 0 90 4 90 10 0 7
210 10 610 10 400 0 610 -3 610 -10 0 -6 27 -10 60 -10 33 0 60 -4 60 -10 0
-5 18 -10 40 -10 22 0 40 -4 40 -10 0 -5 9 -10 20 -10 11 0 20 -4 20 -10 0 -5
8 -10 18 -10 10 0 24 -9 32 -20 8 -11 21 -20 28 -20 7 0 31 -18 52 -40 21 -22
46 -40 54 -40 9 0 16 -8 16 -20 0 -13 7 -20 20 -20 12 0 20 -7 20 -16 0 -9 14
-29 30 -44 17 -15 30 -35 30 -44 0 -9 5 -16 10 -16 6 0 10 -9 10 -20 0 -11 5
-20 10 -20 6 0 10 -9 10 -20 0 -11 5 -20 10 -20 6 0 10 -13 10 -30 0 -16 5
-30 10 -30 6 0 10 -18 10 -40 0 -22 5 -40 10 -40 6 0 10 -27 10 -60 0 -33 4
-60 10 -60 6 0 10 -70 10 -190 0 -120 -4 -190 -10 -190 -5 0 -10 -13 -10 -30
0 -16 -4 -30 -10 -30 -5 0 -10 -9 -10 -20 0 -11 -4 -20 -10 -20 -5 0 -10 -9
-10 -20 0 -11 -4 -20 -10 -20 -5 0 -10 -9 -10 -20 0 -11 -4 -20 -10 -20 -5 0
-10 -9 -10 -20 0 -11 -4 -20 -10 -20 -5 0 -10 -9 -10 -20 0 -11 -4 -20 -10
-20 -5 0 -10 -7 -10 -16 0 -9 -13 -29 -30 -44 -16 -15 -30 -33 -30 -40 0 -6
-18 -29 -40 -50 -22 -21 -40 -43 -40 -49 0 -14 -206 -221 -221 -221 -5 0 -32
-22 -59 -50 -27 -27 -54 -50 -60 -50 -6 0 -29 -18 -50 -40 -21 -22 -44 -40
-50 -40 -7 0 -25 -13 -40 -30 -15 -16 -33 -30 -40 -30 -7 0 -25 -13 -40 -30
-15 -16 -33 -30 -40 -30 -7 0 -25 -13 -40 -30 -15 -16 -33 -30 -40 -30 -7 0
-25 -13 -40 -30 -15 -16 -34 -30 -42 -30 -7 0 -20 -9 -28 -20 -8 -11 -21 -20
-28 -20 -8 0 -27 -13 -42 -30 -15 -16 -33 -30 -40 -30 -7 0 -25 -13 -40 -30
-15 -16 -33 -30 -40 -30 -7 0 -25 -13 -40 -30 -15 -16 -33 -30 -40 -30 -7 0
-25 -13 -40 -30 -15 -16 -33 -30 -40 -30 -7 0 -25 -13 -40 -30 -15 -16 -33
-30 -39 -30 -7 0 -47 -36 -91 -80 -44 -44 -86 -80 -95 -80 -11 0 -15 -11 -15
-40 l0 -40 160 0 c100 0 160 -4 160 -10 0 -6 37 -10 90 -10 53 0 90 -4 90 -10
0 -6 37 -10 90 -10 53 0 90 -4 90 -10 0 -6 47 -10 120 -10 73 0 120 -4 120
-10 0 -6 93 -10 260 -10 167 0 260 -4 260 -10 0 -7 242 -10 706 -10 736 0 734
0 734 40 0 40 1 40 -714 40 -451 0 -686 3 -686 10 0 6 -90 10 -250 10 -160 0
-250 4 -250 10 0 6 -47 10 -120 10 -73 0 -120 4 -120 10 0 6 -43 10 -110 10
-67 0 -110 4 -110 10 0 6 -33 10 -80 10 -47 0 -80 4 -80 10 0 6 -43 10 -110
10 -60 0 -110 3 -110 6 0 10 28 34 40 34 6 0 29 18 50 40 21 22 44 40 50 40 7
0 25 14 40 30 15 17 34 30 42 30 7 0 20 9 28 20 8 11 21 20 28 20 7 0 31 18
52 40 21 22 45 40 52 40 7 0 20 9 28 20 8 11 21 20 28 20 7 0 31 18 52 40 21
22 45 40 52 40 7 0 20 9 28 20 8 11 21 20 28 20 8 0 27 14 42 30 15 17 33 30
40 30 7 0 25 14 40 30 15 17 33 30 40 30 7 0 25 14 40 30 15 17 34 30 42 30 7
0 20 9 28 20 8 11 22 20 32 20 11 0 18 7 18 20 0 11 7 20 16 20 8 0 37 23 64
50 27 28 54 50 59 50 15 0 321 307 321 321 0 6 18 28 40 49 22 21 40 45 40 52
0 7 9 20 20 28 11 8 20 22 20 32 0 10 5 18 10 18 6 0 10 9 10 20 0 11 5 20 10
20 6 0 10 9 10 20 0 11 5 20 10 20 6 0 10 9 10 20 0 11 5 20 10 20 6 0 10 9
10 20 0 11 5 20 10 20 6 0 10 14 10 30 0 17 5 30 10 30 6 0 10 9 10 20 0 11 5
20 10 20 6 0 10 77 10 210 0 133 -4 210 -10 210 -5 0 -10 23 -10 50 0 28 -4
50 -10 50 -5 0 -10 18 -10 40 0 22 -4 40 -10 40 -5 0 -10 18 -10 40 0 22 -4
40 -10 40 -5 0 -10 9 -10 20 0 11 -4 20 -10 20 -5 0 -10 9 -10 20 0 11 -4 20
-10 20 -5 0 -10 8 -10 18 0 10 -9 24 -20 32 -11 8 -20 20 -20 27 0 16 -145
163 -161 163 -6 0 -24 14 -39 30 -15 17 -34 30 -42 30 -7 0 -20 9 -28 20 -8
11 -22 20 -32 20 -10 0 -18 5 -18 10 0 6 -9 10 -20 10 -11 0 -20 5 -20 10 0 6
-18 10 -40 10 -22 0 -40 5 -40 10 0 6 -27 10 -60 10 -33 0 -60 4 -60 10 0 7
-217 10 -630 10 -413 0 -630 -3 -630 -10z"/>
<path d="M7360 9850 l0 -450 -390 0 -390 0 0 -40 0 -40 390 0 390 0 0 -370 0
-370 26 0 c54 0 54 -1 54 384 l0 356 306 0 c251 0 308 3 320 14 8 8 14 20 14
26 0 6 -6 18 -14 26 -12 11 -69 14 -320 14 l-306 0 0 436 c0 472 1 464 -54
464 l-26 0 0 -450z"/>
<path d="M12420 9540 l0 -40 516 0 c535 0 544 1 544 40 0 39 -9 40 -544 40
l-516 0 0 -40z"/>
<path d="M120 3920 c-18 -18 -20 -33 -20 -195 0 -162 2 -177 20 -195 19 -19
33 -20 460 -20 427 0 441 1 460 20 l20 20 20 -20 c19 -19 33 -20 470 -20 437
0 451 1 470 20 18 18 20 33 20 195 0 162 -2 177 -20 195 -19 19 -33 20 -470
20 -437 0 -451 -1 -470 -20 l-20 -20 -20 20 c-19 19 -33 20 -460 20 -427 0
-441 -1 -460 -20z m915 -195 l0 -190 -455 0 -455 0 -3 180 c-1 98 0 185 2 192
4 11 95 13 458 11 l453 -3 0 -190z m980 0 l0 -190 -465 0 -465 0 -3 180 c-1
98 0 185 2 192 4 11 97 13 468 11 l463 -3 0 -190z"/>
<path d="M319 3825 c-52 -29 -63 -121 -18 -166 39 -39 139 -14 139 36 0 22
-28 18 -35 -4 -7 -23 -37 -35 -65 -26 -29 9 -46 74 -29 111 19 39 70 46 93 12
11 -15 19 -19 26 -12 16 16 -19 53 -55 59 -17 3 -41 -1 -56 -10z"/>
<path d="M470 3735 c0 -57 4 -95 10 -95 6 0 10 38 10 95 0 57 -4 95 -10 95 -6
0 -10 -38 -10 -95z"/>
<path d="M536 3758 c-36 -51 -8 -118 49 -118 32 0 65 21 65 41 0 15 -27 10
-34 -6 -7 -18 -37 -20 -54 -3 -22 22 -13 28 38 28 46 0 50 2 50 23 0 54 -84
79 -114 35z m82 -15 c2 -9 -8 -13 -33 -13 -33 0 -36 2 -25 15 15 18 51 16 58
-2z"/>
<path d="M684 3763 c-12 -12 -13 -18 -4 -21 6 -2 17 1 23 7 6 6 21 11 34 11
33 0 29 -28 -4 -35 -40 -9 -58 -20 -61 -39 -6 -31 17 -45 71 -44 l52 1 -3 56
c-2 31 -9 62 -14 69 -15 18 -74 15 -94 -5z m64 -94 c-23 -15 -50 -10 -46 8 4
22 52 35 56 15 2 -8 -2 -18 -10 -23z"/>
<path d="M820 3710 c0 -56 3 -70 15 -70 11 0 15 12 15 49 0 46 10 65 34 66 5
0 11 6 14 13 2 8 -9 12 -37 12 l-41 0 0 -70z"/>
<path d="M1270 3827 c-30 -15 -38 -58 -14 -78 9 -8 33 -19 53 -24 43 -13 56
-49 20 -58 -27 -7 -64 7 -72 27 -9 22 -27 20 -27 -3 0 -46 100 -70 133 -33 35
38 13 82 -48 96 -43 11 -58 25 -44 42 15 19 48 18 70 -2 27 -24 45 -13 22 13
-23 28 -61 37 -93 20z"/>
<path d="M1560 3735 c0 -57 4 -95 10 -95 6 0 10 38 10 95 0 57 -4 95 -10 95
-6 0 -10 -38 -10 -95z"/>
<path d="M1419 3764 c-21 -25 -17 -93 6 -110 26 -20 69 -17 88 4 21 23 22 86
1 106 -20 21 -78 20 -95 0z m83 -29 c22 -49 -25 -98 -60 -63 -7 7 -12 24 -12
38 0 51 52 69 72 25z"/>
<path d="M1614 3757 c13 -53 46 -119 58 -115 11 4 58 110 58 130 0 4 -6 8 -14
8 -7 0 -19 -20 -26 -45 -7 -25 -16 -45 -19 -45 -4 0 -13 19 -21 42 -17 47 -47
68 -36 25z"/>
<path d="M1773 3772 c-41 -26 -32 -117 13 -128 32 -8 73 3 81 22 9 23 -5 29
-25 11 -25 -23 -49 -21 -62 3 -10 19 -8 20 40 20 46 0 50 2 50 24 0 14 -7 32
-16 40 -16 17 -61 21 -81 8z m65 -29 c2 -9 -8 -13 -33 -13 -33 0 -36 2 -25 15
15 18 51 16 58 -2z"/>
<path d="M212 2897 c-28 -68 -55 -134 -60 -148 -6 -14 -17 -31 -26 -38 -27
-23 -18 -31 34 -31 28 0 50 5 50 10 0 6 -6 10 -14 10 -22 0 -27 15 -16 44 9
24 15 26 64 26 40 0 55 -4 60 -16 11 -28 6 -54 -9 -54 -8 0 -15 -4 -15 -10 0
-6 33 -10 80 -10 44 0 80 3 80 6 0 3 -9 13 -19 22 -11 10 -48 83 -82 165 -34
81 -65 147 -69 147 -5 0 -31 -55 -58 -123z m46 -34 c5 -16 13 -36 17 -45 6
-15 1 -18 -33 -18 l-41 0 17 45 c9 25 19 45 23 45 4 0 12 -12 17 -27z"/>
<path d="M2001 2981 c-17 -16 -31 -34 -31 -40 0 -16 7 -14 31 10 23 23 57 22
72 -2 16 -25 0 -64 -30 -78 l-28 -13 37 -19 c65 -34 87 -89 48 -124 -19 -17
-21 -17 -59 9 -47 33 -76 31 -76 -4 0 -58 108 -63 170 -8 43 37 54 86 31 134
-8 19 -21 34 -26 34 -7 0 -5 9 4 22 59 84 -65 152 -143 79z"/>
<path d="M456 2901 c-3 -5 1 -11 9 -15 22 -8 22 -174 0 -182 -33 -13 -12 -24
45 -24 55 0 75 10 50 25 -5 3 -10 37 -10 74 0 72 14 99 45 87 12 -4 15 -23 15
-86 0 -47 -4 -80 -10 -80 -5 0 -10 -4 -10 -10 0 -6 27 -10 62 -10 59 0 60 1
45 18 -13 14 -17 38 -17 99 0 90 -13 113 -65 113 -16 0 -37 -7 -47 -17 -17
-15 -18 -15 -18 0 0 13 -10 17 -44 17 -25 0 -47 -4 -50 -9z"/>
<path d="M741 2884 c-34 -44 -23 -82 32 -110 70 -36 83 -74 25 -74 -22 0 -33
7 -46 30 -23 40 -32 38 -32 -9 0 -39 13 -61 25 -42 3 6 16 6 34 0 21 -8 38 -6
65 5 67 28 58 100 -19 143 -42 23 -53 55 -23 61 10 2 28 -8 41 -22 32 -34 37
-33 37 7 l0 33 -59 2 c-54 2 -61 0 -80 -24z"/>
<path d="M910 2896 c0 -8 4 -17 9 -20 5 -3 26 -51 46 -106 21 -55 42 -100 46
-100 4 0 20 32 35 70 15 39 28 70 30 70 1 0 12 -29 24 -65 12 -36 25 -67 30
-70 4 -3 25 39 46 92 21 54 44 105 51 114 20 24 16 29 -22 29 -34 0 -46 -12
-25 -25 11 -7 7 -25 -13 -75 -9 -24 -10 -24 -23 20 -9 29 -11 47 -4 54 20 20
9 26 -45 26 -51 0 -69 -10 -45 -25 14 -9 12 -55 -3 -83 -12 -21 -14 -20 -32
30 -13 37 -15 53 -7 56 27 9 -2 22 -49 22 -36 0 -49 -4 -49 -14z"/>
<path d="M1289 2879 c-25 -27 -29 -39 -29 -89 0 -48 4 -61 25 -83 32 -31 71
-39 110 -23 31 13 62 43 53 51 -3 3 -18 -1 -33 -9 -34 -18 -61 -7 -75 30 -16
41 -13 44 51 44 l62 0 -7 33 c-15 77 -104 103 -157 46z m91 -15 c15 -39 13
-44 -20 -44 -23 0 -30 5 -30 19 0 53 33 70 50 25z"/>
<path d="M1470 2901 c0 -6 5 -13 10 -16 6 -3 10 -46 10 -96 0 -53 -4 -89 -10
-89 -5 0 -10 -4 -10 -10 0 -6 28 -10 65 -10 37 0 65 4 65 10 0 6 -7 10 -15 10
-18 0 -30 58 -22 107 8 45 22 62 39 45 19 -19 55 -15 61 7 11 45 -36 67 -81
35 -20 -14 -22 -14 -22 0 0 12 -11 16 -45 16 -25 0 -45 -4 -45 -9z"/>
<path d="M1721 2896 c-7 -8 -11 -25 -9 -38 2 -19 9 -23 38 -23 33 0 35 2 35
35 0 30 -4 35 -26 38 -14 2 -31 -4 -38 -12z"/>
<path d="M1722 2748 c-34 -34 6 -90 48 -68 35 19 20 80 -20 80 -9 0 -21 -5
-28 -12z"/>
<path d="M25530 140 c0 -32 -25 -74 -65 -109 l-36 -31 56 0 55 0 0 80 c0 44
-2 80 -5 80 -3 0 -5 -9 -5 -20z"/>
<path d="M0 22 c0 -17 6 -22 27 -22 14 0 24 1 22 3 -2 1 -14 11 -26 21 -23 19
-23 19 -23 -2z"/>
</g>
</svg>
