<?xml version="1.0" standalone="no"?>
<!DOCTYPE svg PUBLIC "-//W3C//DTD SVG 20010904//EN"
 "http://www.w3.org/TR/2001/REC-SVG-20010904/DTD/svg10.dtd">
<svg version="1.0" xmlns="http://www.w3.org/2000/svg"
 width="1588.000000pt" height="1534.000000pt" viewBox="0 0 1588.000000 1534.000000"
 preserveAspectRatio="xMidYMid meet">

<g transform="translate(0.000000,1534.000000) scale(0.100000,-0.100000)"
fill="#000000" stroke="none">
<path d="M190 15243 c-95 -49 -83 -183 20 -214 53 -16 107 10 134 65 17 36 18
43 5 79 -25 71 -96 102 -159 70z m124 -33 c65 -63 18 -173 -74 -173 -91 0
-138 107 -75 173 45 47 100 47 149 0z"/>
<path d="M6332 14589 c-61 -18 -80 -121 -31 -170 16 -16 31 -19 72 -17 l52 3
3 38 c2 28 0 37 -12 37 -11 0 -16 -9 -16 -30 0 -26 -4 -30 -28 -30 -50 0 -80
52 -62 106 13 38 37 49 86 39 27 -5 34 -3 34 10 0 8 -9 15 -19 15 -11 0 -25 2
-33 4 -7 2 -28 0 -46 -5z"/>
<path d="M8160 14500 c0 -82 3 -100 15 -100 12 0 15 18 15 100 0 82 -3 100
-15 100 -12 0 -15 -18 -15 -100z"/>
<path d="M5660 14495 c0 -76 3 -95 15 -95 11 0 15 16 17 66 l3 66 42 -66 c60
-94 73 -89 73 29 0 78 -3 95 -15 95 -12 0 -15 -14 -15 -67 l-1 -68 -42 67
c-26 42 -49 68 -59 68 -16 0 -18 -11 -18 -95z"/>
<path d="M8020 14495 c0 -78 3 -95 15 -95 10 0 15 11 15 35 0 30 4 36 28 41
39 10 62 33 62 65 0 34 -24 49 -79 49 l-41 0 0 -95z m83 53 c13 -20 -6 -48
-34 -48 -15 0 -19 7 -19 36 0 31 3 35 21 32 12 -2 27 -10 32 -20z"/>
<path d="M9560 14495 c0 -78 3 -95 15 -95 10 0 15 11 15 35 0 30 4 36 28 41
39 10 62 33 62 65 0 34 -24 49 -79 49 l-41 0 0 -95z m83 53 c13 -20 -6 -48
-34 -48 -15 0 -19 7 -19 36 0 31 3 35 21 32 12 -2 27 -10 32 -20z"/>
<path d="M5871 14527 c-41 -50 -8 -127 54 -127 19 0 37 5 40 10 4 6 -6 10 -24
10 -31 0 -65 25 -56 41 4 5 24 9 46 9 43 0 49 12 23 48 -17 25 -65 30 -83 9z
m67 -24 c2 -9 -7 -13 -28 -13 -28 0 -31 2 -20 15 15 18 41 16 48 -2z"/>
<path d="M5983 14528 c2 -7 12 -39 21 -70 21 -72 41 -76 57 -13 13 51 19 50
34 -3 16 -58 38 -52 59 15 10 32 21 64 23 71 3 6 -1 12 -9 12 -8 0 -21 -20
-30 -47 l-15 -48 -14 48 c-17 60 -37 59 -58 -3 l-15 -45 -15 48 c-8 27 -21 47
-29 47 -8 0 -12 -6 -9 -12z"/>
<path d="M6467 14533 c-15 -14 -6 -21 25 -19 23 1 33 -4 36 -16 3 -13 -3 -18
-22 -18 -43 0 -72 -45 -43 -68 15 -12 117 -13 117 -1 0 5 -4 9 -10 9 -5 0 -10
20 -10 44 0 66 -7 76 -49 76 -21 0 -41 -3 -44 -7z m55 -105 c-12 -12 -42 -4
-42 12 0 6 10 14 23 19 16 6 23 5 25 -6 2 -8 -1 -20 -6 -25z"/>
<path d="M6600 14470 c0 -56 3 -70 15 -70 11 0 15 12 15 50 0 39 4 51 20 60
31 17 40 4 40 -56 0 -41 4 -54 15 -54 11 0 15 12 15 49 0 49 18 79 40 66 5 -3
10 -31 10 -61 0 -42 3 -54 15 -54 13 0 15 12 13 68 -3 65 -4 67 -31 70 -16 2
-34 -2 -42 -8 -9 -7 -15 -8 -20 0 -8 14 -48 13 -63 -2 -9 -9 -12 -9 -12 0 0 7
-7 12 -15 12 -12 0 -15 -14 -15 -70z"/>
<path d="M6851 14527 c-41 -50 -8 -127 54 -127 19 0 37 5 40 10 4 6 -6 10 -24
10 -31 0 -65 25 -56 41 4 5 24 9 46 9 43 0 49 12 23 48 -17 25 -65 30 -83 9z
m67 -24 c2 -9 -7 -13 -28 -13 -28 0 -31 2 -20 15 15 18 41 16 48 -2z"/>
<path d="M8247 14533 c-15 -14 -6 -21 25 -19 23 1 33 -4 36 -16 3 -13 -3 -18
-22 -18 -43 0 -72 -45 -43 -68 15 -12 117 -13 117 -1 0 5 -4 9 -10 9 -5 0 -10
20 -10 44 0 66 -7 76 -49 76 -21 0 -41 -3 -44 -7z m55 -105 c-12 -12 -42 -4
-42 12 0 6 10 14 23 19 16 6 23 5 25 -6 2 -8 -1 -20 -6 -25z"/>
<path d="M8386 14470 c22 -59 25 -75 15 -96 -10 -22 -9 -25 5 -22 14 3 84 153
84 180 0 24 -23 2 -41 -39 l-21 -48 -18 45 c-10 25 -25 46 -34 48 -14 3 -12
-7 10 -68z"/>
<path d="M9707 14533 c-15 -14 -6 -21 25 -19 23 1 33 -4 36 -16 3 -13 -3 -18
-22 -18 -43 0 -72 -45 -43 -68 15 -12 117 -13 117 -1 0 5 -4 9 -10 9 -5 0 -10
20 -10 44 0 66 -7 76 -49 76 -21 0 -41 -3 -44 -7z m55 -105 c-12 -12 -42 -4
-42 12 0 6 10 14 23 19 16 6 23 5 25 -6 2 -8 -1 -20 -6 -25z"/>
<path d="M9840 14482 c0 -62 11 -82 45 -82 12 0 26 5 33 12 9 9 12 9 12 0 0
-7 7 -12 15 -12 12 0 15 14 15 70 0 56 -3 70 -15 70 -11 0 -15 -11 -15 -43 0
-31 -6 -49 -19 -61 -29 -26 -41 -11 -41 50 0 41 -4 54 -15 54 -12 0 -15 -13
-15 -58z"/>
<path d="M10006 14524 c-11 -30 -6 -44 24 -59 17 -9 30 -23 30 -32 0 -12 -7
-14 -30 -9 -22 4 -30 2 -30 -9 0 -16 44 -21 74 -9 28 11 19 53 -14 72 -36 21
-39 42 -5 42 14 0 25 5 25 10 0 17 -67 12 -74 -6z"/>
<path d="M10151 14527 c-41 -50 -8 -127 54 -127 19 0 37 5 40 10 4 6 -6 10
-24 10 -31 0 -65 25 -56 41 4 5 24 9 46 9 43 0 49 12 23 48 -17 25 -65 30 -83
9z m67 -24 c2 -9 -7 -13 -28 -13 -28 0 -31 2 -20 15 15 18 41 16 48 -2z"/>
<path d="M1920 7080 l0 -6040 6040 0 6040 0 0 6040 0 6040 -6040 0 -6040 0 0
-6040z m1160 5310 l0 -110 -360 0 -360 0 0 110 0 110 360 0 360 0 0 -110z
m1460 0 l0 -110 -346 0 c-286 0 -348 2 -360 14 -18 19 -20 170 -1 191 10 12
72 14 360 15 l347 0 0 -110z m-240 -1540 l0 -350 -110 0 -110 0 0 350 0 350
110 0 110 0 0 -350z m1720 0 l0 -110 -350 0 -350 0 0 110 0 110 350 0 350 0 0
-110z m1580 0 l0 -110 -360 0 -360 0 0 110 0 110 360 0 360 0 0 -110z m1500 0
l0 -110 -360 0 -360 0 0 110 0 110 360 0 360 0 0 -110z m1580 0 l0 -110 -346
0 c-286 0 -348 2 -360 14 -10 11 -14 41 -14 110 l0 96 360 0 360 0 0 -110z
m1420 0 l0 -110 -360 0 -360 0 0 110 0 110 360 0 360 0 0 -110z m-7814 -1144
c21 -21 21 -671 0 -692 -11 -10 -41 -14 -110 -14 l-96 0 0 360 0 360 96 0 c69
0 99 -4 110 -14z m4560 0 c21 -21 21 -671 0 -692 -22 -21 -192 -20 -213 2 -14
13 -14 17 -2 25 12 8 12 11 -1 20 -11 8 -12 12 -2 16 17 7 18 599 0 605 -9 3
-8 9 2 21 20 22 194 24 216 3z m-4546 -1876 l0 -350 -110 0 -110 0 0 350 0
350 110 0 110 0 0 -350z m1480 0 l0 -350 -110 0 -110 0 0 350 0 350 110 0 110
0 0 -350z m3320 0 l0 -110 -360 0 -360 0 0 110 0 110 360 0 360 0 0 -110z
m1440 0 l0 -110 -360 0 -360 0 0 110 0 110 360 0 360 0 0 -110z m1540 0 l0
-110 -350 0 -350 0 0 110 0 110 350 0 350 0 0 -110z m1660 0 l0 -110 -350 0
-350 0 0 110 0 110 350 0 350 0 0 -110z m-9440 -1496 c0 -286 -2 -348 -14
-360 -11 -10 -41 -14 -110 -14 l-96 0 0 360 0 360 110 0 110 0 0 -346z m1480
-14 l0 -360 -96 0 c-69 0 -99 4 -110 14 -12 12 -14 74 -14 360 l0 346 110 0
110 0 0 -360z m3306 106 c10 -11 14 -41 14 -110 l0 -96 -360 0 -360 0 0 95 c0
63 4 101 13 110 18 21 672 22 693 1z m1474 -96 l0 -110 -350 0 -350 0 0 110 0
110 350 0 350 0 0 -110z m1526 96 c10 -11 14 -41 14 -110 l0 -96 -360 0 -360
0 0 110 0 110 346 0 c286 0 348 -2 360 -14z m1554 -96 l0 -110 -350 0 -350 0
0 110 0 110 350 0 350 0 0 -110z m-9360 -860 c0 -5 13 -10 28 -10 16 0 34 -8
42 -20 8 -11 20 -20 28 -20 18 0 42 -25 42 -44 0 -9 5 -16 10 -16 6 0 10 -13
10 -30 0 -16 5 -30 10 -30 6 0 10 -9 10 -20 0 -11 5 -20 10 -20 6 0 10 -13 10
-30 0 -16 -4 -30 -10 -30 -5 0 -10 -7 -10 -16 0 -8 -6 -22 -14 -30 -8 -8 -22
-14 -30 -14 -9 0 -16 -4 -16 -10 0 -5 -9 -10 -20 -10 -11 0 -20 -4 -20 -10 0
-5 -22 -10 -50 -10 -27 0 -50 -4 -50 -10 0 -5 -22 -10 -50 -10 -27 0 -50 5
-50 10 0 6 -22 10 -50 10 -27 0 -50 5 -50 10 0 6 -9 10 -20 10 -11 0 -20 5
-20 10 0 6 -7 10 -16 10 -20 0 -44 24 -44 44 0 9 -4 16 -10 16 -5 0 -10 14
-10 30 0 17 5 30 10 30 6 0 10 23 10 50 0 28 5 50 10 50 6 0 10 7 10 15 0 20
45 65 65 65 8 0 15 5 15 10 0 6 14 10 30 10 17 0 30 5 30 10 0 6 33 10 80 10
47 0 80 -4 80 -10z m7560 -660 l0 -350 -110 0 -110 0 0 350 0 350 110 0 110 0
0 -350z m-7360 -40 l0 -290 -300 0 -300 0 0 290 0 290 300 0 300 0 0 -290z
m-1440 -1460 l0 -110 -350 0 -350 0 0 110 0 110 350 0 350 0 0 -110z m1500 0
l0 -110 -360 0 -360 0 0 95 c0 63 4 101 13 110 10 12 72 14 360 15 l347 0 0
-110z m1460 0 l0 -110 -360 0 -360 0 0 30 c0 17 5 30 10 30 6 0 10 18 10 40 0
22 -4 40 -10 40 -5 0 -10 11 -10 25 0 55 -3 54 373 55 l347 0 0 -110z m1560 0
l0 -110 -350 0 -350 0 0 110 0 110 350 0 350 0 0 -110z m1526 96 c10 -11 14
-41 14 -110 l0 -96 -360 0 -360 0 0 95 c0 63 4 101 13 110 18 21 672 22 693 1z
m1474 -96 l0 -110 -350 0 -350 0 0 110 0 110 350 0 350 0 0 -110z m-3240
-1520 l0 -350 -110 0 -110 0 0 350 0 350 110 0 110 0 0 -350z m-4300 0 l0
-110 -350 0 -350 0 0 110 0 110 350 0 350 0 0 -110z m1520 0 l0 -110 -360 0
-360 0 0 95 c0 63 4 101 13 110 10 12 72 14 360 15 l347 0 0 -110z m6060 0 l0
-110 -360 0 -360 0 0 95 c0 63 4 101 13 110 10 12 72 14 360 15 l347 0 0 -110z
m1486 96 c10 -11 14 -41 14 -110 l0 -96 -360 0 -360 0 0 110 0 110 346 0 c286
0 348 -2 360 -14z m1420 0 c10 -11 14 -41 14 -110 l0 -96 -360 0 -360 0 0 110
0 110 346 0 c286 0 348 -2 360 -14z"/>
<path d="M4252 4884 c-11 -12 -10 -17 2 -30 15 -14 17 -14 32 0 14 14 14 18 0
31 -18 18 -18 18 -34 -1z"/>
<path d="M4052 4864 c-11 -12 -10 -17 2 -30 15 -14 17 -14 32 0 14 14 14 18 0
31 -18 18 -18 18 -34 -1z"/>
<path d="M4172 4804 c-11 -12 -10 -17 2 -30 15 -14 17 -14 32 0 14 14 14 18 0
31 -18 18 -18 18 -34 -1z"/>
<path d="M4052 4724 c-11 -12 -10 -17 2 -30 15 -14 17 -14 32 0 14 14 14 18 0
31 -18 18 -18 18 -34 -1z"/>
<path d="M4212 4684 c-11 -12 -10 -17 2 -30 15 -14 17 -14 32 0 14 14 14 18 0
31 -18 18 -18 18 -34 -1z"/>
</g>
</svg>
