<?xml version="1.0" standalone="no"?>
<!DOCTYPE svg PUBLIC "-//W3C//DTD SVG 20010904//EN"
 "http://www.w3.org/TR/2001/REC-SVG-20010904/DTD/svg10.dtd">
<svg version="1.0" xmlns="http://www.w3.org/2000/svg"
 width="1272.000000pt" height="1274.000000pt" viewBox="0 0 1272.000000 1274.000000"
 preserveAspectRatio="xMidYMid meet">

<g transform="translate(0.000000,1274.000000) scale(0.100000,-0.100000)"
fill="#000000" stroke="none">
<path d="M0 12724 c0 -14 3 -14 15 -4 8 7 15 14 15 16 0 2 -7 4 -15 4 -8 0
-15 -7 -15 -16z"/>
<path d="M12690 12736 c0 -2 7 -9 15 -16 12 -10 15 -10 15 4 0 9 -7 16 -15 16
-8 0 -15 -2 -15 -4z"/>
<path d="M190 12603 c-95 -49 -83 -183 20 -214 53 -16 107 10 134 65 17 36 18
43 5 79 -25 71 -96 102 -159 70z m124 -33 c65 -63 18 -173 -74 -173 -91 0
-138 107 -75 173 45 47 100 47 149 0z"/>
<path d="M6064 12609 c-7 -12 15 -31 28 -23 4 3 8 12 8 20 0 17 -26 19 -36 3z"/>
<path d="M5680 12510 c0 -83 1 -90 20 -90 18 0 20 7 21 58 l1 57 21 -58 c14
-36 27 -56 36 -55 7 2 23 28 35 58 l21 55 3 -57 c2 -43 7 -58 17 -58 12 0 15
18 15 91 0 88 -1 90 -22 87 -17 -2 -27 -16 -41 -53 -10 -27 -22 -54 -26 -58
-4 -4 -18 19 -30 53 -19 51 -26 60 -47 60 -24 0 -24 -1 -24 -90z"/>
<path d="M6370 12510 c0 -73 3 -90 15 -90 12 0 15 13 15 57 0 63 8 61 34 -9
10 -27 23 -48 30 -48 7 0 22 26 33 58 l22 57 0 -57 c1 -51 3 -58 21 -58 19 0
20 7 20 90 0 88 -1 90 -24 90 -20 0 -27 -10 -46 -60 -12 -33 -26 -58 -29 -55
-4 2 -16 29 -26 59 -16 46 -23 56 -42 56 -22 0 -23 -3 -23 -90z"/>
<path d="M5920 12545 c-18 -21 -5 -30 24 -17 19 8 27 8 35 -2 14 -17 4 -26
-29 -26 -38 0 -56 -24 -42 -54 10 -22 17 -24 68 -24 l56 1 -4 59 c-3 37 -10
63 -19 69 -22 14 -75 10 -89 -6z m68 -77 c-5 -15 -48 -24 -48 -10 0 14 12 22
33 22 10 0 17 -5 15 -12z"/>
<path d="M6060 12490 c0 -63 2 -70 20 -70 18 0 20 7 20 70 0 63 -2 70 -20 70
-18 0 -20 -7 -20 -70z"/>
<path d="M6130 12489 c0 -62 2 -69 19 -69 17 0 20 8 23 53 3 45 6 52 26 55 21
3 22 0 22 -52 0 -49 2 -56 20 -56 18 0 20 7 20 59 0 35 -5 63 -13 69 -7 6 -36
11 -65 10 l-52 0 0 -69z"/>
<path d="M6606 12538 c-46 -65 25 -145 95 -108 32 18 21 31 -22 28 -27 -2 -43
2 -46 10 -3 8 9 12 41 12 42 0 46 2 46 23 0 54 -84 79 -114 35z m84 -23 c0 -3
-14 -5 -31 -5 -27 0 -30 2 -19 15 9 11 17 12 31 4 10 -5 19 -12 19 -14z"/>
<path d="M6750 12489 c0 -62 2 -69 19 -69 17 0 20 8 23 53 3 44 6 52 23 52 17
0 20 -8 23 -52 3 -45 6 -53 23 -53 16 0 19 7 19 44 0 25 -4 56 -10 70 -8 23
-14 25 -65 25 l-55 -1 0 -69z"/>
<path d="M6910 12516 c0 -25 4 -56 9 -70 9 -22 15 -24 65 -24 l56 1 0 68 c0
62 -2 69 -19 69 -17 0 -20 -8 -23 -52 -3 -45 -6 -53 -23 -53 -17 0 -20 8 -23
53 -3 44 -6 52 -23 52 -16 0 -19 -7 -19 -44z"/>
<path d="M0 10880 l0 -1340 280 0 280 0 0 -386 c0 -321 -2 -388 -14 -400 -12
-11 -63 -14 -280 -14 l-266 0 0 -390 0 -390 100 0 100 0 0 -390 c0 -383 0
-390 -20 -390 -11 0 -20 -4 -20 -10 0 -6 -33 -10 -80 -10 l-80 0 0 -360 0
-360 60 0 c33 0 60 -4 60 -10 0 -5 18 -10 40 -10 l40 0 0 -390 0 -390 -100 0
-100 0 0 -390 0 -390 266 0 c217 0 268 -3 280 -14 12 -12 14 -79 14 -400 l0
-386 -280 0 -280 0 0 -370 0 -370 280 0 280 0 0 -400 0 -400 -280 0 -280 0 0
-390 0 -390 280 0 280 0 0 -400 0 -400 -280 0 -280 0 0 -370 0 -370 280 0 280
0 0 -100 0 -100 450 0 450 0 0 100 0 100 400 0 400 0 0 -100 0 -100 390 0 390
0 0 100 0 100 400 0 400 0 0 -100 0 -100 4440 0 4440 0 0 30 c0 30 0 30 -20
10 -19 -19 -33 -20 -240 -20 l-220 0 0 400 0 400 240 0 240 0 0 430 0 430
-240 0 -240 0 0 400 0 400 240 0 240 0 0 390 0 390 -240 0 -240 0 0 400 0 400
240 0 240 0 0 370 0 370 -240 0 -240 0 0 400 0 400 240 0 240 0 0 390 0 390
-240 0 -240 0 0 400 0 400 240 0 240 0 0 1260 c0 693 -2 1260 -5 1260 -12 0
-55 -50 -55 -62 0 -8 -9 -20 -20 -28 -11 -8 -20 -21 -20 -28 0 -8 -13 -27 -30
-42 -16 -15 -30 -33 -30 -40 0 -6 -18 -29 -40 -50 -22 -21 -40 -44 -40 -50 0
-6 -32 -42 -70 -80 -39 -38 -70 -74 -70 -80 0 -13 -267 -280 -280 -280 -6 0
-38 -27 -70 -60 -32 -33 -64 -60 -70 -60 -6 0 -29 -18 -50 -40 -21 -22 -44
-40 -50 -40 -6 0 -29 -18 -50 -40 -21 -22 -45 -40 -52 -40 -7 0 -20 -9 -28
-20 -8 -11 -21 -20 -30 -20 -9 0 -22 -9 -30 -20 -8 -11 -21 -20 -30 -20 -9 0
-22 -9 -30 -20 -8 -11 -21 -20 -30 -20 -9 0 -22 -9 -30 -20 -8 -11 -21 -20
-30 -20 -9 0 -22 -9 -30 -20 -8 -11 -22 -20 -32 -20 -10 0 -18 -4 -18 -10 0
-5 -8 -10 -18 -10 -10 0 -24 -9 -32 -20 -8 -11 -22 -20 -32 -20 -10 0 -18 -4
-18 -10 0 -5 -9 -10 -20 -10 -11 0 -20 -4 -20 -10 0 -5 -9 -10 -20 -10 -11 0
-20 -4 -20 -10 0 -5 -8 -10 -18 -10 -10 0 -24 -9 -32 -20 -8 -11 -26 -20 -40
-20 -14 0 -32 -9 -40 -20 -8 -12 -26 -20 -42 -20 -15 0 -28 -4 -28 -10 0 -5
-9 -10 -20 -10 -11 0 -20 -4 -20 -10 0 -5 -9 -10 -20 -10 -11 0 -20 -4 -20
-10 0 -6 -37 -10 -90 -10 -53 0 -90 -4 -90 -10 0 -5 -7 -10 -16 -10 -8 0 -37
-22 -64 -50 -33 -34 -57 -50 -74 -50 -14 0 -26 -4 -26 -10 0 -5 -13 -10 -30
-10 -16 0 -30 -4 -30 -10 0 -5 -13 -10 -30 -10 -16 0 -30 -4 -30 -10 0 -5 -13
-10 -30 -10 -16 0 -30 -4 -30 -10 0 -5 -18 -10 -40 -10 -22 0 -40 -4 -40 -10
0 -5 -18 -10 -40 -10 -22 0 -40 -4 -40 -10 0 -5 -18 -10 -40 -10 -22 0 -40 -4
-40 -10 0 -5 -22 -10 -50 -10 -27 0 -50 -4 -50 -10 0 -5 -22 -10 -50 -10 -27
0 -50 -4 -50 -10 0 -6 -30 -10 -70 -10 -40 0 -70 -4 -70 -10 0 -6 -30 -10 -70
-10 -40 0 -70 -4 -70 -10 0 -6 -53 -10 -140 -10 -87 0 -140 -4 -140 -10 0 -6
-63 -10 -170 -10 -107 0 -170 4 -170 10 0 6 -53 10 -140 10 -87 0 -140 4 -140
10 0 6 -33 10 -80 10 -47 0 -80 4 -80 10 0 6 -27 10 -60 10 -33 0 -60 4 -60
10 0 6 -27 10 -60 10 -33 0 -60 4 -60 10 0 6 -18 10 -40 10 -22 0 -40 5 -40
10 0 6 -22 10 -50 10 -27 0 -50 5 -50 10 0 6 -13 10 -30 10 -16 0 -30 5 -30
10 0 6 -18 10 -40 10 -22 0 -40 5 -40 10 0 6 -13 10 -30 10 -16 0 -30 5 -30
10 0 6 -18 10 -40 10 -22 0 -40 5 -40 10 0 6 -9 10 -20 10 -16 0 -20 7 -20 36
0 58 -14 64 -144 64 -71 0 -116 4 -116 10 0 6 -13 10 -30 10 -16 0 -30 5 -30
10 0 6 -13 10 -30 10 -16 0 -30 5 -30 10 0 6 -9 10 -20 10 -11 0 -20 5 -20 10
0 6 -9 10 -20 10 -11 0 -20 5 -20 10 0 6 -9 10 -20 10 -11 0 -20 5 -20 10 0 6
-9 10 -20 10 -11 0 -20 5 -20 10 0 6 -9 10 -20 10 -11 0 -20 5 -20 10 0 6 -9
10 -20 10 -11 0 -20 5 -20 10 0 6 -8 10 -18 10 -10 0 -24 9 -32 20 -8 11 -22
20 -32 20 -10 0 -18 5 -18 10 0 6 -9 10 -20 10 -11 0 -20 5 -20 10 0 6 -8 10
-18 10 -10 0 -24 9 -32 20 -8 11 -22 20 -32 20 -10 0 -18 5 -18 10 0 6 -8 10
-18 10 -10 0 -24 9 -32 20 -8 11 -21 20 -30 20 -9 0 -22 9 -30 20 -8 11 -21
20 -30 20 -9 0 -22 9 -30 20 -8 11 -21 20 -30 20 -9 0 -22 9 -30 20 -8 11 -21
20 -28 20 -8 0 -27 14 -42 30 -15 17 -33 30 -40 30 -6 0 -29 18 -50 40 -21 22
-44 40 -50 40 -6 0 -33 23 -60 50 -27 28 -54 50 -59 50 -14 0 -421 407 -421
421 0 5 -23 32 -50 59 -28 27 -50 54 -50 60 0 7 -14 25 -30 40 -17 15 -30 33
-30 40 0 7 -14 25 -30 40 -17 15 -30 33 -30 40 0 7 -13 25 -30 40 -16 15 -30
34 -30 42 0 7 -9 20 -20 28 -11 8 -20 21 -20 30 0 9 -9 22 -20 30 -11 8 -20
21 -20 30 0 9 -9 22 -20 30 -11 8 -20 22 -20 32 0 10 -4 18 -10 18 -5 0 -10 8
-10 18 0 10 -9 24 -20 32 -11 8 -20 22 -20 32 0 10 -4 18 -10 18 -5 0 -10 9
-10 20 0 11 -4 20 -10 20 -5 0 -10 9 -10 20 0 11 -4 20 -10 20 -5 0 -10 8 -10
18 0 10 -9 24 -20 32 -11 8 -20 22 -20 32 0 10 -4 18 -10 18 -5 0 -10 9 -10
20 0 11 -4 20 -10 20 -5 0 -10 9 -10 20 0 11 -4 20 -10 20 -5 0 -10 14 -10 30
0 17 -4 30 -10 30 -5 0 -10 9 -10 20 0 11 -4 20 -10 20 -5 0 -10 9 -10 20 0
11 -4 20 -10 20 -5 0 -10 9 -10 20 0 11 -4 20 -10 20 -5 0 -10 14 -10 30 0 17
-4 30 -10 30 -5 0 -10 9 -10 20 0 11 -4 20 -10 20 -5 0 -10 14 -10 30 0 17 -4
30 -10 30 -5 0 -10 9 -10 20 0 11 -4 20 -10 20 -5 0 -10 14 -10 30 0 17 -4 30
-10 30 -5 0 -10 14 -10 30 0 17 -4 30 -10 30 -5 0 -10 14 -10 30 0 17 -4 30
-10 30 -5 0 -10 18 -10 40 0 22 -4 40 -10 40 -5 0 -10 14 -10 30 0 17 -4 30
-10 30 -5 0 -10 18 -10 40 0 22 -4 40 -10 40 -5 0 -10 18 -10 40 0 22 -4 40
-10 40 -5 0 -10 18 -10 40 0 22 -4 40 -10 40 -5 0 -10 23 -10 50 0 28 -4 50
-10 50 -6 0 -10 27 -10 60 0 33 -4 60 -10 60 -6 0 -10 30 -10 70 0 40 -4 70
-10 70 -6 0 -10 43 -10 110 0 67 -4 110 -10 110 -6 0 -10 83 -10 230 l0 230
-2510 0 -2510 0 0 -1340z m2260 -1726 c0 -321 -2 -388 -14 -400 -12 -12 -79
-14 -400 -14 l-386 0 0 400 0 400 400 0 400 0 0 -386z m1580 0 c0 -321 -2
-388 -14 -400 -12 -12 -79 -14 -400 -14 l-386 0 0 400 0 400 400 0 400 0 0
-386z m7070 -994 c8 -11 22 -20 32 -20 11 0 18 -7 18 -20 0 -11 5 -20 10 -20
6 0 10 -9 10 -20 0 -11 5 -20 10 -20 6 0 10 -13 10 -30 0 -16 -4 -30 -10 -30
-5 0 -10 -11 -10 -25 0 -29 -59 -95 -85 -95 -8 0 -15 -4 -15 -10 0 -5 -22 -10
-50 -10 -27 0 -50 5 -50 10 0 6 -7 10 -15 10 -9 0 -31 16 -50 35 -19 19 -35
41 -35 50 0 8 -4 15 -10 15 -5 0 -10 18 -10 40 0 22 5 40 10 40 6 0 10 9 10
20 0 11 5 20 10 20 6 0 10 9 10 20 0 13 7 20 18 20 10 0 24 9 32 20 12 17 26
20 80 20 54 0 68 -3 80 -20z m-10235 -25 c14 -13 25 -36 25 -50 0 -14 5 -25
10 -25 6 0 10 -9 10 -20 0 -11 5 -20 10 -20 6 0 10 -13 10 -30 0 -16 5 -30 10
-30 6 0 10 -9 10 -20 0 -11 5 -20 10 -20 6 0 10 -13 10 -30 0 -16 5 -30 10
-30 6 0 10 -9 10 -20 0 -11 5 -20 10 -20 6 0 10 -13 10 -30 0 -16 5 -30 10
-30 6 0 10 -9 10 -20 0 -11 5 -20 10 -20 6 0 10 -13 10 -30 0 -16 5 -30 10
-30 6 0 10 -9 10 -20 0 -11 5 -20 10 -20 6 0 10 -13 10 -30 0 -16 5 -30 10
-30 6 0 10 -9 10 -20 0 -11 5 -20 10 -20 6 0 10 -13 10 -30 0 -16 5 -30 10
-30 6 0 10 -9 10 -20 0 -11 5 -20 10 -20 6 0 10 -13 10 -30 0 -16 5 -30 10
-30 6 0 10 -9 10 -20 0 -11 5 -20 10 -20 6 0 10 -9 10 -20 0 -11 5 -20 10 -20
6 0 10 9 10 20 0 11 5 20 10 20 6 0 10 9 10 20 0 11 5 20 10 20 6 0 10 14 10
30 0 17 5 30 10 30 6 0 10 9 10 20 0 11 5 20 10 20 6 0 10 14 10 30 0 17 5 30
10 30 6 0 10 9 10 20 0 11 5 20 10 20 6 0 10 14 10 30 0 17 5 30 10 30 6 0 10
9 10 20 0 11 5 20 10 20 6 0 10 14 10 30 0 17 5 30 10 30 6 0 10 9 10 20 0 11
5 20 10 20 6 0 10 14 10 30 0 17 5 30 10 30 6 0 10 9 10 20 0 11 5 20 10 20 6
0 10 14 10 30 0 17 5 30 10 30 6 0 10 9 10 20 0 11 5 20 10 20 6 0 10 14 10
30 0 17 5 30 10 30 6 0 10 9 10 20 0 11 5 20 10 20 6 0 10 11 10 25 0 14 11
37 25 50 23 24 31 25 135 25 83 0 115 -4 126 -14 12 -13 14 -187 14 -1210 l0
-1196 -160 0 -160 0 0 60 c0 33 4 60 10 60 7 0 10 273 10 800 0 527 -3 800
-10 800 -5 0 -10 -13 -10 -30 0 -16 -4 -30 -10 -30 -5 0 -10 -9 -10 -20 0 -11
-4 -20 -10 -20 -5 0 -10 -13 -10 -30 0 -16 -4 -30 -10 -30 -5 0 -10 -13 -10
-30 0 -16 -4 -30 -10 -30 -5 0 -10 -9 -10 -20 0 -11 -4 -20 -10 -20 -5 0 -10
-13 -10 -30 0 -16 -4 -30 -10 -30 -5 0 -10 -13 -10 -30 0 -16 -4 -30 -10 -30
-5 0 -10 -9 -10 -20 0 -11 -4 -20 -10 -20 -5 0 -10 -13 -10 -30 0 -16 -4 -30
-10 -30 -5 0 -10 -9 -10 -20 0 -11 -4 -20 -10 -20 -5 0 -10 -13 -10 -30 0 -16
-4 -30 -10 -30 -5 0 -10 -13 -10 -30 0 -16 -4 -30 -10 -30 -5 0 -10 -9 -10
-20 0 -11 -4 -20 -10 -20 -5 0 -10 -12 -10 -26 0 -31 -21 -54 -50 -54 -29 0
-50 23 -50 54 0 14 -4 26 -10 26 -5 0 -10 14 -10 30 0 17 -4 30 -10 30 -5 0
-10 9 -10 20 0 11 -4 20 -10 20 -5 0 -10 14 -10 30 0 17 -4 30 -10 30 -5 0
-10 9 -10 20 0 11 -4 20 -10 20 -5 0 -10 14 -10 30 0 17 -4 30 -10 30 -5 0
-10 14 -10 30 0 17 -4 30 -10 30 -5 0 -10 9 -10 20 0 11 -4 20 -10 20 -5 0
-10 14 -10 30 0 17 -4 30 -10 30 -5 0 -10 14 -10 30 0 17 -4 30 -10 30 -5 0
-10 9 -10 20 0 11 -4 20 -10 20 -5 0 -10 14 -10 30 0 17 -4 30 -10 30 -5 0
-10 9 -10 20 0 11 -4 20 -10 20 -5 0 -10 14 -10 30 0 17 -4 30 -10 30 -7 0
-10 -263 -10 -770 0 -507 3 -770 10 -770 6 0 10 -37 10 -90 l0 -90 -160 0
-160 0 0 1195 c0 943 3 1199 13 1210 9 11 40 14 125 15 107 0 114 -1 137 -25z
m6185 5 c0 -11 5 -20 10 -20 6 0 10 -9 10 -20 0 -11 5 -20 10 -20 6 0 10 -13
10 -30 0 -16 5 -30 10 -30 6 0 10 -9 10 -20 0 -11 5 -20 10 -20 6 0 10 -13 10
-30 0 -16 5 -30 10 -30 6 0 10 -9 10 -20 0 -11 5 -20 10 -20 6 0 10 -13 10
-30 0 -16 5 -30 10 -30 6 0 10 -9 10 -20 0 -11 5 -20 10 -20 6 0 10 -13 10
-30 0 -16 5 -30 10 -30 6 0 10 -9 10 -20 0 -11 5 -20 10 -20 6 0 10 -13 10
-30 0 -16 5 -30 10 -30 6 0 10 -9 10 -20 0 -11 5 -20 10 -20 6 0 10 -13 10
-30 0 -16 5 -30 10 -30 6 0 10 -9 10 -20 0 -11 5 -20 10 -20 6 0 10 -13 10
-30 0 -16 5 -30 10 -30 6 0 10 -9 10 -20 0 -11 5 -20 10 -20 6 0 10 -9 10 -20
0 -11 5 -20 10 -20 6 0 10 -13 10 -30 0 -16 3 -30 6 -30 14 0 34 31 34 54 0
14 5 26 10 26 6 0 10 9 10 20 0 11 5 20 10 20 6 0 10 14 10 30 0 17 5 30 10
30 6 0 10 9 10 20 0 11 5 20 10 20 6 0 10 14 10 30 0 17 5 30 10 30 6 0 10 9
10 20 0 11 5 20 10 20 6 0 10 14 10 30 0 17 5 30 10 30 6 0 10 9 10 20 0 11 5
20 10 20 6 0 10 14 10 30 0 17 5 30 10 30 6 0 10 9 10 20 0 11 5 20 10 20 6 0
10 14 10 30 0 17 5 30 10 30 6 0 10 9 10 20 0 11 5 20 10 20 6 0 10 14 10 30
0 17 5 30 10 30 6 0 10 9 10 20 0 11 5 20 10 20 6 0 10 14 10 30 0 17 5 30 10
30 6 0 10 9 10 20 0 11 5 20 10 20 6 0 10 7 10 16 0 37 24 44 154 44 l126 0 0
-1210 0 -1210 -150 0 -150 0 0 780 c0 513 3 780 10 780 6 0 10 37 10 90 0 53
-4 90 -10 90 -5 0 -10 -9 -10 -20 0 -11 -4 -20 -10 -20 -5 0 -10 -9 -10 -20 0
-11 -4 -20 -10 -20 -5 0 -10 -13 -10 -30 0 -16 -4 -30 -10 -30 -5 0 -10 -9
-10 -20 0 -11 -4 -20 -10 -20 -5 0 -10 -13 -10 -30 0 -16 -4 -30 -10 -30 -5 0
-10 -13 -10 -30 0 -16 -4 -30 -10 -30 -5 0 -10 -9 -10 -20 0 -11 -4 -20 -10
-20 -5 0 -10 -13 -10 -30 0 -16 -4 -30 -10 -30 -5 0 -10 -13 -10 -30 0 -16 -4
-30 -10 -30 -5 0 -10 -9 -10 -20 0 -11 -4 -20 -10 -20 -5 0 -10 -13 -10 -30 0
-16 -4 -30 -10 -30 -5 0 -10 -9 -10 -20 0 -11 -4 -20 -10 -20 -5 0 -10 -13
-10 -30 0 -16 -4 -30 -10 -30 -5 0 -10 -13 -10 -30 0 -16 -4 -30 -10 -30 -5 0
-10 -7 -10 -16 0 -23 -25 -44 -54 -44 -19 0 -26 5 -26 20 0 11 -4 20 -10 20
-5 0 -10 9 -10 20 0 11 -4 20 -10 20 -5 0 -10 14 -10 30 0 17 -4 30 -10 30 -5
0 -10 14 -10 30 0 17 -4 30 -10 30 -5 0 -10 9 -10 20 0 11 -4 20 -10 20 -5 0
-10 14 -10 30 0 17 -4 30 -10 30 -5 0 -10 9 -10 20 0 11 -4 20 -10 20 -5 0
-10 14 -10 30 0 17 -4 30 -10 30 -5 0 -10 14 -10 30 0 17 -4 30 -10 30 -5 0
-10 9 -10 20 0 11 -4 20 -10 20 -5 0 -10 14 -10 30 0 17 -4 30 -10 30 -5 0
-10 14 -10 30 0 17 -4 30 -10 30 -5 0 -10 9 -10 20 0 11 -4 20 -10 20 -5 0
-10 14 -10 30 0 17 -4 30 -10 30 -5 0 -10 9 -10 20 0 11 -4 20 -10 20 -7 0
-10 -197 -10 -570 0 -373 3 -570 10 -570 6 0 10 -103 10 -290 l0 -290 -150 0
-150 0 0 1210 0 1210 130 0 c123 0 130 -1 130 -20z m-4600 -466 c0 -307 -1
-314 -52 -314 -13 0 -30 -9 -38 -20 -8 -11 -21 -20 -30 -20 -9 0 -22 -9 -30
-20 -8 -11 -20 -20 -28 -20 -7 0 -35 -22 -62 -50 -27 -27 -56 -50 -64 -50 -9
0 -16 -4 -16 -10 0 -6 -47 -10 -120 -10 l-120 0 0 400 0 400 280 0 280 0 0
-286z m1580 -4 l0 -290 -346 0 c-286 0 -348 -2 -360 -14 -9 -10 -14 -37 -14
-80 0 -37 -4 -66 -10 -66 -5 0 -10 -9 -10 -20 0 -16 -7 -20 -30 -20 l-30 0 0
390 0 390 400 0 400 0 0 -290z m-1340 -300 c0 -5 18 -10 40 -10 22 0 40 -4 40
-10 0 -5 13 -10 28 -10 16 0 34 -8 42 -20 8 -11 20 -20 27 -20 19 0 123 -106
123 -125 0 -8 5 -15 10 -15 6 0 10 -9 10 -20 0 -11 5 -20 10 -20 6 0 10 -18
10 -40 0 -22 5 -40 10 -40 7 0 10 -182 10 -526 0 -565 -1 -554 50 -554 12 0
35 14 50 30 50 54 60 43 60 -65 l0 -96 -45 -44 c-24 -25 -51 -45 -60 -45 -8 0
-15 -4 -15 -10 0 -5 -9 -10 -20 -10 -11 0 -20 -4 -20 -10 0 -6 -30 -10 -70
-10 -40 0 -70 4 -70 10 0 6 -7 10 -15 10 -19 0 -65 44 -65 62 0 8 -9 20 -20
28 -12 8 -20 26 -20 42 0 19 -5 28 -16 28 -18 0 -44 -23 -44 -40 0 -14 -46
-60 -61 -60 -6 0 -24 -13 -39 -30 -17 -18 -38 -30 -54 -30 -14 0 -26 -4 -26
-10 0 -6 -33 -10 -80 -10 -47 0 -80 4 -80 10 0 6 -9 10 -20 10 -11 0 -20 5
-20 10 0 6 -7 10 -15 10 -19 0 -85 64 -85 82 0 8 -9 20 -20 28 -11 8 -20 22
-20 32 0 10 -4 18 -10 18 -5 0 -10 14 -10 30 0 17 -4 30 -10 30 -5 0 -10 23
-10 50 0 28 -4 50 -10 50 -5 0 -10 18 -10 40 0 22 5 40 10 40 6 0 10 23 10 50
0 28 5 50 10 50 6 0 10 13 10 28 0 16 8 34 20 42 11 8 20 20 20 27 0 16 165
183 181 183 6 0 24 14 39 30 15 17 34 30 42 30 7 0 20 9 28 20 8 11 21 20 30
20 9 0 22 9 30 20 8 11 22 20 32 20 10 0 18 5 18 10 0 6 8 10 18 10 10 0 24 9
32 20 8 11 22 20 32 20 10 0 18 5 18 10 0 6 9 10 20 10 19 0 20 7 20 120 0 73
-4 120 -10 120 -5 0 -10 11 -10 25 0 16 -13 39 -35 60 -34 34 -36 35 -120 35
-50 0 -85 -4 -85 -10 0 -5 -9 -10 -20 -10 -11 0 -20 -4 -20 -10 0 -5 -9 -10
-20 -10 -11 0 -20 -4 -20 -10 0 -5 -7 -10 -16 -10 -8 0 -37 -22 -64 -50 -27
-27 -54 -50 -60 -50 -15 0 -40 -25 -40 -40 0 -17 -26 -40 -44 -40 -14 0 -16
20 -16 150 0 93 4 150 10 150 6 0 10 9 10 20 0 12 7 20 16 20 8 0 33 18 54 40
21 22 46 40 54 40 9 0 16 5 16 10 0 6 9 10 20 10 11 0 20 5 20 10 0 6 9 10 20
10 11 0 20 5 20 10 0 6 9 10 20 10 11 0 20 5 20 10 0 6 18 10 40 10 22 0 40 5
40 10 0 6 30 10 70 10 40 0 70 -4 70 -10z m2200 0 c0 -5 14 -10 30 -10 17 0
30 -4 30 -10 0 -5 8 -10 18 -10 10 0 24 -9 32 -20 8 -11 20 -20 28 -20 17 0
62 -45 62 -62 0 -8 9 -20 20 -28 11 -8 20 -22 20 -32 0 -10 5 -18 10 -18 6 0
10 -9 10 -20 0 -11 5 -20 10 -20 6 0 10 -13 10 -30 0 -16 5 -30 10 -30 6 0 10
-18 10 -40 0 -22 5 -40 10 -40 6 0 10 -22 10 -50 0 -27 5 -50 10 -50 6 0 10
-33 10 -80 0 -47 4 -80 10 -80 17 0 13 -229 -4 -246 -12 -11 -66 -14 -300 -14
l-286 0 0 -50 c0 -27 5 -50 10 -50 6 0 10 -30 10 -70 0 -40 4 -70 10 -70 6 0
10 -18 10 -40 0 -22 5 -40 10 -40 6 0 10 -9 10 -20 0 -11 5 -20 10 -20 6 0 10
-7 10 -15 0 -26 86 -105 115 -105 14 0 25 -4 25 -10 0 -6 30 -10 70 -10 40 0
70 4 70 10 0 6 14 10 30 10 17 0 30 5 30 10 0 6 7 10 16 10 8 0 37 23 64 50
27 28 51 50 54 50 3 0 6 -61 6 -135 0 -131 -1 -137 -25 -160 -13 -14 -30 -25
-37 -25 -8 0 -20 -9 -28 -20 -8 -11 -22 -20 -32 -20 -10 0 -18 -4 -18 -10 0
-5 -13 -10 -30 -10 -16 0 -30 -4 -30 -10 0 -6 -50 -10 -130 -10 -80 0 -130 4
-130 10 0 6 -9 10 -20 10 -11 0 -20 5 -20 10 0 6 -9 10 -20 10 -11 0 -20 5
-20 10 0 6 -7 10 -15 10 -19 0 -125 104 -125 123 0 7 -9 19 -20 27 -11 8 -20
22 -20 32 0 10 -4 18 -10 18 -5 0 -10 9 -10 20 0 11 -4 20 -10 20 -5 0 -10 14
-10 30 0 17 -4 30 -10 30 -5 0 -10 14 -10 30 0 17 -4 30 -10 30 -5 0 -10 23
-10 50 0 28 -4 50 -10 50 -6 0 -10 33 -10 80 0 47 -4 80 -10 80 -6 0 -10 63
-10 170 0 107 4 170 10 170 6 0 10 33 10 80 0 47 4 80 10 80 6 0 10 18 10 40
0 22 5 40 10 40 6 0 10 18 10 40 0 22 5 40 10 40 6 0 10 9 10 20 0 11 5 20 10
20 6 0 10 14 10 30 0 17 5 30 10 30 6 0 10 8 10 18 0 10 9 24 20 32 11 8 20
20 20 27 0 19 86 103 105 103 8 0 15 5 15 10 0 6 9 10 20 10 11 0 20 5 20 10
0 6 14 10 30 10 17 0 30 5 30 10 0 6 30 10 70 10 40 0 70 -4 70 -10z m4000 0
c0 -5 18 -10 40 -10 22 0 40 -4 40 -10 0 -5 9 -10 20 -10 11 0 20 -4 20 -10 0
-5 7 -10 15 -10 9 0 45 -29 80 -65 36 -35 65 -71 65 -80 0 -8 5 -15 10 -15 6
0 10 -9 10 -20 0 -11 5 -20 10 -20 6 0 10 -13 10 -30 0 -16 5 -30 10 -30 7 0
10 -185 10 -536 0 -578 -1 -564 52 -564 13 0 30 9 38 20 8 11 22 20 32 20 10
0 18 5 18 10 0 6 5 10 10 10 6 0 10 -42 10 -106 0 -107 -8 -134 -42 -134 -8 0
-20 -9 -28 -20 -8 -11 -21 -20 -30 -20 -9 0 -22 -9 -30 -20 -12 -17 -26 -20
-92 -20 -45 0 -78 4 -78 10 0 6 -7 10 -15 10 -20 0 -65 45 -65 65 0 8 -4 15
-10 15 -5 0 -10 9 -10 20 0 11 -4 20 -10 20 -5 0 -10 9 -10 20 0 13 -7 20 -20
20 -11 0 -20 -7 -20 -15 0 -19 -84 -105 -103 -105 -7 0 -19 -9 -27 -20 -8 -11
-22 -20 -32 -20 -10 0 -18 -4 -18 -10 0 -6 -37 -10 -90 -10 -53 0 -90 4 -90
10 0 6 -9 10 -20 10 -11 0 -20 5 -20 10 0 6 -7 10 -15 10 -19 0 -85 64 -85 82
0 8 -9 20 -20 28 -11 8 -20 22 -20 32 0 10 -4 18 -10 18 -5 0 -10 14 -10 30 0
17 -4 30 -10 30 -6 0 -10 50 -10 130 0 80 4 130 10 130 6 0 10 14 10 30 0 17
5 30 10 30 6 0 10 9 10 20 0 11 5 20 10 20 6 0 10 7 10 15 0 19 164 185 183
185 7 0 19 9 27 20 8 11 21 20 30 20 9 0 22 9 30 20 8 11 21 20 30 20 9 0 22
9 30 20 8 11 21 20 30 20 9 0 22 9 30 20 8 11 22 20 32 20 10 0 18 5 18 10 0
6 8 10 18 10 10 0 24 9 32 20 8 11 22 20 32 20 16 0 18 12 18 130 0 80 -4 130
-10 130 -5 0 -10 7 -10 15 0 9 -16 31 -35 50 -34 34 -36 35 -120 35 -50 0 -85
-4 -85 -10 0 -5 -9 -10 -20 -10 -11 0 -20 -4 -20 -10 0 -5 -8 -10 -18 -10 -10
0 -24 -9 -32 -20 -8 -11 -20 -20 -28 -20 -7 0 -48 -36 -92 -80 -44 -44 -82
-80 -85 -80 -3 0 -5 70 -5 155 l0 156 45 44 c24 25 50 45 58 45 7 0 19 9 27
20 8 11 22 20 32 20 10 0 18 5 18 10 0 6 9 10 20 10 11 0 20 5 20 10 0 6 9 10
20 10 11 0 20 5 20 10 0 6 18 10 40 10 22 0 40 5 40 10 0 6 33 10 80 10 47 0
80 -4 80 -10z m3100 0 c0 -5 18 -10 40 -10 22 0 40 -4 40 -10 0 -5 13 -10 28
-10 16 0 34 -8 42 -20 8 -11 20 -20 27 -20 17 0 103 -86 103 -103 0 -7 9 -19
20 -27 12 -8 20 -26 20 -42 0 -15 5 -28 10 -28 6 0 10 -18 10 -40 0 -22 5 -40
10 -40 7 0 10 -183 10 -530 l0 -530 36 0 c27 0 43 7 64 30 15 17 31 30 34 30
3 0 6 -47 6 -105 l0 -106 -35 -34 c-19 -19 -41 -35 -50 -35 -8 0 -15 -4 -15
-10 0 -5 -9 -10 -20 -10 -11 0 -20 -4 -20 -10 0 -6 -32 -10 -75 -10 l-76 0
-44 45 c-25 24 -45 51 -45 60 0 8 -4 15 -10 15 -5 0 -10 14 -10 30 0 47 -24
37 -100 -40 -38 -38 -76 -70 -85 -70 -8 0 -15 -4 -15 -10 0 -5 -9 -10 -20 -10
-11 0 -20 -4 -20 -10 0 -6 -37 -10 -90 -10 -53 0 -90 4 -90 10 0 6 -7 10 -15
10 -20 0 -125 105 -125 125 0 8 -4 15 -10 15 -5 0 -10 9 -10 20 0 11 -4 20
-10 20 -5 0 -10 9 -10 20 0 11 -4 20 -10 20 -5 0 -10 18 -10 40 0 22 -4 40
-10 40 -6 0 -10 33 -10 80 0 47 4 80 10 80 6 0 10 18 10 40 0 22 5 40 10 40 6
0 10 9 10 20 0 11 5 20 10 20 6 0 10 8 10 18 0 10 9 24 20 32 11 8 20 20 20
28 0 15 65 82 80 82 7 0 29 18 50 40 21 22 45 40 52 40 7 0 20 9 28 20 8 11
21 20 30 20 9 0 22 9 30 20 8 11 21 20 30 20 9 0 22 9 30 20 8 11 21 20 30 20
9 0 22 9 30 20 8 11 22 20 32 20 10 0 18 5 18 10 0 6 7 10 15 10 9 0 27 11 40
25 23 22 25 32 25 120 0 57 -4 95 -10 95 -5 0 -10 14 -10 30 0 17 -4 30 -10
30 -5 0 -10 7 -10 15 0 9 -11 27 -25 40 -22 23 -32 25 -110 25 -50 0 -85 -4
-85 -10 0 -5 -13 -10 -28 -10 -16 0 -34 -8 -42 -20 -8 -11 -21 -20 -28 -20 -8
0 -27 -13 -42 -30 -15 -16 -33 -30 -40 -30 -6 0 -38 -27 -70 -60 -32 -33 -61
-60 -64 -60 -4 0 -6 70 -6 155 0 152 1 156 25 180 13 14 29 25 36 25 6 0 24
14 39 30 15 17 35 30 44 30 9 0 16 5 16 10 0 6 9 10 20 10 11 0 20 5 20 10 0
6 9 10 20 10 11 0 20 5 20 10 0 6 9 10 20 10 11 0 20 5 20 10 0 6 18 10 40 10
22 0 40 5 40 10 0 6 30 10 70 10 40 0 70 -4 70 -10z m-1700 -20 c0 -5 11 -10
25 -10 28 0 155 -118 155 -145 0 -8 5 -15 10 -15 6 0 10 -9 10 -20 0 -11 5
-20 10 -20 6 0 10 -13 10 -30 0 -16 5 -30 10 -30 7 0 10 -230 10 -670 l0 -670
-140 0 -140 0 0 630 c0 413 -3 630 -10 630 -5 0 -10 11 -10 25 0 29 -40 75
-65 75 -8 0 -15 5 -15 10 0 6 -18 10 -40 10 -22 0 -40 -4 -40 -10 0 -5 -11
-10 -25 -10 -27 0 -115 -78 -115 -103 0 -7 -9 -19 -20 -27 -20 -14 -20 -26
-20 -622 l0 -608 -140 0 -140 0 0 800 0 800 140 0 140 0 0 -80 c0 -47 4 -80
10 -80 6 0 10 7 10 15 0 9 25 40 55 70 30 30 61 55 70 55 8 0 15 5 15 10 0 6
9 10 20 10 11 0 20 5 20 10 0 6 40 10 100 10 60 0 100 -4 100 -10z m-6120 -40
c0 -16 -4 -30 -10 -30 -5 0 -10 -13 -10 -30 0 -16 -4 -30 -10 -30 -5 0 -10
-13 -10 -30 0 -16 -4 -30 -10 -30 -5 0 -10 -9 -10 -20 0 -11 -4 -20 -10 -20
-5 0 -10 -13 -10 -30 0 -16 -4 -30 -10 -30 -5 0 -10 -13 -10 -30 0 -16 -4 -30
-10 -30 -5 0 -10 -9 -10 -20 0 -11 -4 -20 -10 -20 -5 0 -10 -13 -10 -30 0 -16
-4 -30 -10 -30 -5 0 -10 -13 -10 -30 0 -16 -4 -30 -10 -30 -5 0 -10 -9 -10
-20 0 -11 -4 -20 -10 -20 -5 0 -10 -13 -10 -30 0 -16 -4 -30 -10 -30 -5 0 -10
-13 -10 -30 0 -16 -4 -30 -10 -30 -5 0 -10 -9 -10 -20 0 -11 -4 -20 -10 -20
-5 0 -10 -13 -10 -30 0 -16 -4 -30 -10 -30 -5 0 -10 -13 -10 -30 0 -16 -4 -30
-10 -30 -5 0 -10 -9 -10 -20 0 -11 -4 -20 -10 -20 -5 0 -10 -13 -10 -30 0 -16
-4 -30 -10 -30 -5 0 -10 -13 -10 -30 0 -16 -4 -30 -10 -30 -5 0 -10 -9 -10
-20 0 -11 -4 -20 -10 -20 -5 0 -10 -13 -10 -30 0 -16 -4 -30 -10 -30 -5 0 -10
-13 -10 -30 0 -16 -4 -30 -10 -30 -5 0 -10 -9 -10 -20 0 -11 -4 -20 -10 -20
-5 0 -10 -13 -10 -30 0 -16 -4 -30 -10 -30 -5 0 -10 -13 -10 -30 0 -16 -4 -30
-10 -30 -5 0 -10 -9 -10 -20 0 -19 7 -20 250 -20 l250 0 0 -130 0 -130 -450 0
c-293 0 -450 3 -450 10 0 6 5 10 10 10 6 0 10 14 10 30 0 17 5 30 10 30 6 0
10 9 10 20 0 11 5 20 10 20 6 0 10 14 10 30 0 17 5 30 10 30 6 0 10 14 10 30
0 17 5 30 10 30 6 0 10 14 10 30 0 17 5 30 10 30 6 0 10 9 10 20 0 11 5 20 10
20 6 0 10 14 10 30 0 17 5 30 10 30 6 0 10 14 10 30 0 17 5 30 10 30 6 0 10
14 10 30 0 17 5 30 10 30 6 0 10 9 10 20 0 11 5 20 10 20 6 0 10 14 10 30 0
17 5 30 10 30 6 0 10 14 10 30 0 17 5 30 10 30 6 0 10 9 10 20 0 11 5 20 10
20 6 0 10 14 10 30 0 17 5 30 10 30 6 0 10 14 10 30 0 17 5 30 10 30 6 0 10
14 10 30 0 17 5 30 10 30 6 0 10 9 10 20 0 11 5 20 10 20 6 0 10 14 10 30 0
17 5 30 10 30 6 0 10 14 10 30 0 17 5 30 10 30 6 0 10 9 10 20 0 11 5 20 10
20 6 0 10 14 10 30 0 17 5 30 10 30 6 0 10 14 10 30 0 17 5 30 10 30 6 0 10
14 10 30 0 17 5 30 10 30 6 0 10 9 10 20 0 11 5 20 10 20 6 0 10 5 10 10 0 6
-79 10 -216 10 -173 0 -218 3 -230 14 -19 19 -20 210 -1 231 10 12 80 14 420
15 l407 0 0 -30z m6986 16 c12 -12 14 -133 14 -800 l0 -786 -150 0 -150 0 0
785 c0 615 3 789 13 800 18 21 252 21 273 1z m-8986 -896 c0 -5 14 -10 30 -10
17 0 30 -2 30 -5 0 -10 -110 -115 -120 -115 -15 0 -80 -67 -80 -82 0 -8 -9
-20 -20 -28 -11 -8 -20 -22 -20 -32 0 -10 -4 -18 -10 -18 -5 0 -10 -13 -10
-30 0 -16 -4 -30 -10 -30 -6 0 -10 -50 -10 -130 0 -80 4 -130 10 -130 6 0 10
-9 10 -20 0 -11 5 -20 10 -20 6 0 10 -9 10 -20 0 -11 5 -20 10 -20 6 0 10 -7
10 -16 0 -9 14 -29 30 -44 17 -15 30 -31 30 -34 0 -3 -94 -6 -210 -6 l-210 0
0 30 0 30 110 0 c103 0 110 1 110 20 0 11 5 20 10 20 6 0 10 123 10 350 l0
350 140 0 c87 0 140 -4 140 -10z m1140 0 c0 -5 14 -10 30 -10 27 0 30 -3 30
-30 0 -16 -4 -30 -10 -30 -5 0 -10 -13 -10 -30 0 -16 -4 -30 -10 -30 -5 0 -10
-9 -10 -20 0 -11 -4 -20 -10 -20 -5 0 -10 -13 -10 -30 0 -16 -4 -30 -10 -30
-5 0 -10 -13 -10 -30 0 -16 -4 -30 -10 -30 -5 0 -10 -9 -10 -20 0 -11 -4 -20
-10 -20 -5 0 -10 -9 -10 -20 0 -11 -4 -20 -10 -20 -16 0 -13 347 3 365 14 16
67 20 67 5z m706 -4 c21 -21 21 -371 0 -392 -11 -11 -45 -14 -140 -14 l-126 0
0 40 c0 22 5 40 10 40 6 0 10 9 10 20 0 11 5 20 10 20 6 0 10 14 10 30 0 17 5
30 10 30 6 0 10 14 10 30 0 17 5 30 10 30 6 0 10 14 10 30 0 17 5 30 10 30 6
0 10 9 10 20 0 11 5 20 10 20 6 0 10 11 10 25 0 14 6 32 13 40 16 19 114 20
133 1z m-3266 -756 c0 -29 -1 -30 -50 -30 -49 0 -50 1 -50 30 0 29 1 30 50 30
49 0 50 -1 50 -30z m3280 0 c0 -28 -2 -30 -40 -30 -38 0 -40 2 -40 30 0 28 2
30 40 30 38 0 40 -2 40 -30z m-1594 -824 c12 -12 14 -79 14 -400 l0 -386 -400
0 -400 0 0 400 0 400 386 0 c321 0 388 -2 400 -14z m1580 0 c12 -12 14 -79 14
-400 l0 -386 -400 0 -400 0 0 400 0 400 386 0 c321 0 388 -2 400 -14z m3774
-416 c0 -5 18 -10 40 -10 l40 0 0 -60 c0 -53 -2 -60 -20 -60 -11 0 -20 5 -20
10 0 6 -18 10 -40 10 -22 0 -40 -4 -40 -10 0 -5 -9 -10 -20 -10 -13 0 -20 -7
-20 -20 0 -11 -4 -20 -10 -20 -5 0 -10 -18 -10 -40 0 -22 5 -40 10 -40 6 0 10
-13 10 -30 0 -16 5 -30 10 -30 6 0 10 -9 10 -20 0 -11 5 -20 10 -20 6 0 10 -9
10 -20 0 -11 5 -20 10 -20 6 0 10 -9 10 -20 0 -11 5 -20 10 -20 6 0 10 -9 10
-20 0 -11 5 -20 10 -20 6 0 10 -9 10 -20 0 -11 5 -20 10 -20 6 0 10 -9 10 -20
0 -11 5 -20 10 -20 6 0 10 -9 10 -20 0 -11 5 -20 10 -20 6 0 10 -13 10 -30 0
-16 5 -30 10 -30 6 0 10 -43 10 -110 0 -67 -4 -110 -10 -110 -5 0 -10 -7 -10
-15 0 -20 -65 -85 -85 -85 -8 0 -15 -4 -15 -10 0 -6 -30 -10 -70 -10 -40 0
-70 4 -70 10 0 6 -7 10 -16 10 -30 0 -44 27 -44 84 0 31 5 56 10 56 6 0 10 -4
10 -10 0 -5 9 -10 20 -10 11 0 20 -4 20 -10 0 -16 109 -12 126 4 17 17 20 166
4 166 -5 0 -10 9 -10 20 0 11 -4 20 -10 20 -5 0 -10 9 -10 20 0 11 -4 20 -10
20 -5 0 -10 9 -10 20 0 11 -4 20 -10 20 -5 0 -10 9 -10 20 0 11 -4 20 -10 20
-5 0 -10 9 -10 20 0 11 -4 20 -10 20 -5 0 -10 9 -10 20 0 11 -4 20 -10 20 -5
0 -10 9 -10 20 0 11 -4 20 -10 20 -5 0 -10 9 -10 20 0 11 -4 20 -10 20 -5 0
-10 18 -10 40 0 22 -4 40 -10 40 -6 0 -10 30 -10 70 0 40 4 70 10 70 6 0 10
11 10 25 0 17 15 41 45 70 36 36 51 45 80 45 19 0 35 5 35 10 0 6 9 10 20 10
11 0 20 -4 20 -10z m-2100 -20 c0 -5 14 -10 30 -10 17 0 30 -4 30 -10 0 -5 7
-10 15 -10 20 0 85 -65 85 -85 0 -8 5 -15 10 -15 6 0 10 -13 10 -30 0 -16 5
-30 10 -30 6 0 10 -30 10 -70 0 -40 -4 -70 -10 -70 -5 0 -10 -13 -10 -28 0
-16 -8 -34 -20 -42 -11 -8 -20 -22 -20 -32 0 -11 -7 -18 -20 -18 -11 0 -20 -4
-20 -8 0 -4 9 -14 20 -22 11 -8 20 -22 20 -32 0 -10 5 -18 10 -18 6 0 10 -9
10 -20 0 -11 5 -20 10 -20 6 0 10 -9 10 -20 0 -11 5 -20 10 -20 6 0 10 -18 10
-40 0 -22 5 -40 10 -40 6 0 10 -13 10 -30 0 -16 5 -30 10 -30 6 0 10 -22 10
-50 0 -27 5 -50 10 -50 6 0 10 -18 10 -40 0 -22 5 -40 10 -40 6 0 10 -4 10
-10 0 -6 -30 -10 -70 -10 -63 0 -70 2 -70 20 0 11 -4 20 -10 20 -5 0 -10 23
-10 50 0 28 -4 50 -10 50 -5 0 -10 18 -10 40 0 22 -4 40 -10 40 -5 0 -10 18
-10 40 0 22 -4 40 -10 40 -5 0 -10 13 -10 28 0 16 -8 34 -20 42 -11 8 -20 22
-20 32 0 13 -8 18 -30 18 l-30 0 0 -210 0 -210 -60 0 -60 0 0 480 0 480 80 0
c47 0 80 -4 80 -10z m480 -380 c0 -253 4 -390 10 -390 6 0 10 -12 10 -26 0
-37 22 -54 70 -54 30 0 47 6 65 25 l25 24 0 406 0 405 56 0 c35 0 61 -5 70
-14 12 -12 14 -75 14 -370 0 -231 -4 -356 -10 -356 -5 0 -10 -22 -10 -50 0
-27 -4 -50 -10 -50 -5 0 -10 -9 -10 -20 0 -11 -4 -20 -10 -20 -5 0 -10 -7 -10
-16 0 -20 -24 -44 -44 -44 -9 0 -16 -4 -16 -10 0 -5 -9 -10 -20 -10 -11 0 -20
-4 -20 -10 0 -6 -30 -10 -70 -10 -40 0 -70 4 -70 10 0 6 -7 10 -15 10 -26 0
-105 86 -105 115 0 14 -4 25 -10 25 -7 0 -10 143 -10 410 l0 410 60 0 60 0 0
-390z m600 -40 l0 -430 120 0 120 0 0 -50 0 -50 -190 0 -190 0 0 465 c0 359 3
469 13 480 7 9 33 14 70 15 l57 0 0 -430z m666 416 c8 -8 14 -34 14 -60 l0
-46 -110 0 -110 0 0 -140 0 -140 86 0 c101 0 114 -8 114 -74 l0 -46 -100 0
-100 0 0 -170 0 -170 110 0 110 0 0 -50 0 -50 -180 0 -180 0 0 480 0 480 166
0 c130 0 168 -3 180 -14z m-4986 -1486 l0 -400 -400 0 -400 0 0 400 0 400 400
0 400 0 0 -400z m1566 386 c12 -12 14 -79 14 -400 l0 -386 -400 0 -400 0 0
400 0 400 386 0 c321 0 388 -2 400 -14z m1754 -1116 c0 -5 14 -10 30 -10 l30
0 0 -60 c0 -53 -2 -60 -20 -60 -11 0 -20 5 -20 10 0 16 -109 12 -126 -4 -16
-17 -20 -146 -4 -146 6 0 10 -13 10 -30 0 -16 5 -30 10 -30 6 0 10 -9 10 -20
0 -11 5 -20 10 -20 6 0 10 -9 10 -20 0 -11 5 -20 10 -20 6 0 10 -9 10 -20 0
-11 5 -20 10 -20 6 0 10 -9 10 -20 0 -11 5 -20 10 -20 6 0 10 -9 10 -20 0 -11
5 -20 10 -20 6 0 10 -9 10 -20 0 -11 5 -20 10 -20 6 0 10 -9 10 -20 0 -11 5
-20 10 -20 6 0 10 -13 10 -30 0 -16 5 -30 10 -30 6 0 10 -37 10 -90 0 -53 -4
-90 -10 -90 -5 0 -10 -7 -10 -15 0 -20 -85 -105 -105 -105 -8 0 -15 -4 -15
-10 0 -5 -22 -10 -50 -10 -27 0 -50 5 -50 10 0 6 -12 10 -26 10 -40 0 -54 22
-54 84 0 31 5 56 10 56 6 0 10 -4 10 -10 0 -5 9 -10 20 -10 11 0 20 -4 20 -10
0 -5 18 -10 40 -10 22 0 40 5 40 10 0 6 9 10 20 10 13 0 20 7 20 20 0 11 5 20
10 20 6 0 10 23 10 50 0 28 -4 50 -10 50 -5 0 -10 9 -10 20 0 11 -4 20 -10 20
-5 0 -10 14 -10 30 0 17 -4 30 -10 30 -5 0 -10 8 -10 18 0 10 -9 24 -20 32
-11 8 -20 22 -20 32 0 10 -4 18 -10 18 -5 0 -10 9 -10 20 0 11 -4 20 -10 20
-5 0 -10 9 -10 20 0 11 -4 20 -10 20 -5 0 -10 14 -10 30 0 17 -4 30 -10 30 -5
0 -10 14 -10 30 0 17 -4 30 -10 30 -6 0 -10 40 -10 100 0 60 4 100 10 100 6 0
10 7 10 15 0 20 65 85 85 85 8 0 15 5 15 10 0 6 27 10 60 10 33 0 60 -4 60
-10z m560 -56 c0 -60 -15 -74 -84 -74 l-56 0 0 -420 0 -420 -70 0 -70 0 0 420
0 420 -70 0 -70 0 0 60 0 60 210 0 210 0 0 -46z m300 16 c0 -16 5 -30 10 -30
6 0 10 -22 10 -50 0 -27 5 -50 10 -50 6 0 10 -22 10 -50 0 -27 5 -50 10 -50 6
0 10 -27 10 -60 0 -33 4 -60 10 -60 6 0 10 -22 10 -50 0 -27 5 -50 10 -50 6 0
10 -22 10 -50 0 -27 5 -50 10 -50 6 0 10 -27 10 -60 0 -33 4 -60 10 -60 6 0
10 -22 10 -50 0 -27 5 -50 10 -50 6 0 10 -22 10 -50 0 -27 5 -50 10 -50 6 0
10 -13 10 -30 l0 -30 -60 0 c-53 0 -60 2 -60 20 0 11 -4 20 -10 20 -6 0 -10
30 -10 70 0 40 -4 70 -10 70 -5 0 -10 9 -10 20 0 19 -7 20 -90 20 l-90 0 0
-50 c0 -27 -4 -50 -10 -50 -6 0 -10 -27 -10 -60 l0 -60 -70 0 c-40 0 -70 4
-70 10 0 6 5 10 10 10 6 0 10 23 10 50 0 28 5 50 10 50 6 0 10 27 10 60 0 33
4 60 10 60 6 0 10 23 10 50 0 28 5 50 10 50 6 0 10 23 10 50 0 28 5 50 10 50
6 0 10 23 10 50 0 28 5 50 10 50 6 0 10 27 10 60 0 33 4 60 10 60 6 0 10 23
10 50 0 28 5 50 10 50 6 0 10 23 10 50 0 28 5 50 10 50 6 0 10 23 10 50 l0 50
70 0 70 0 0 -30z m460 20 c0 -5 11 -10 25 -10 29 0 95 -59 95 -85 0 -8 5 -15
10 -15 6 0 10 -9 10 -20 0 -11 5 -20 10 -20 6 0 10 -40 10 -100 0 -60 -4 -100
-10 -100 -5 0 -10 -9 -10 -20 0 -11 -4 -20 -10 -20 -5 0 -10 -8 -10 -18 0 -10
-9 -24 -20 -32 -11 -8 -20 -21 -20 -30 0 -9 9 -22 20 -30 11 -8 20 -22 20 -32
0 -10 5 -18 10 -18 6 0 10 -9 10 -20 0 -11 5 -20 10 -20 6 0 10 -13 10 -30 0
-16 5 -30 10 -30 6 0 10 -13 10 -30 0 -16 5 -30 10 -30 6 0 10 -22 10 -50 0
-27 5 -50 10 -50 6 0 10 -18 10 -40 0 -22 5 -40 10 -40 6 0 10 -13 10 -30 l0
-30 -70 0 -70 0 0 40 c0 22 -4 40 -10 40 -5 0 -10 23 -10 50 0 28 -4 50 -10
50 -5 0 -10 18 -10 40 0 22 -4 40 -10 40 -5 0 -10 14 -10 30 0 17 -4 30 -10
30 -5 0 -10 11 -10 25 0 22 -57 95 -75 95 -3 0 -5 -99 -5 -220 l0 -220 -70 0
-70 0 0 480 0 480 100 0 c60 0 100 -4 100 -10z m660 -50 l0 -60 -70 0 -70 0 0
-420 0 -420 -70 0 -70 0 0 420 0 420 -70 0 -70 0 0 60 0 60 210 0 210 0 0 -60z
m-5300 -780 l0 -400 -400 0 -400 0 0 400 0 400 400 0 400 0 0 -400z m1566 386
c12 -12 14 -79 14 -400 l0 -386 -400 0 -400 0 0 400 0 400 386 0 c321 0 388
-2 400 -14z"/>
<path d="M2540 6530 c0 -5 -7 -10 -16 -10 -9 0 -29 -13 -44 -30 -15 -16 -33
-30 -39 -30 -16 0 -121 -107 -121 -123 0 -7 -9 -19 -20 -27 -11 -8 -20 -22
-20 -32 0 -10 -4 -18 -10 -18 -5 0 -10 -18 -10 -40 0 -22 -4 -40 -10 -40 -5 0
-10 -18 -10 -40 0 -22 5 -40 10 -40 6 0 10 -13 10 -30 0 -16 5 -30 10 -30 6 0
10 -7 10 -16 0 -20 24 -44 44 -44 9 0 16 -4 16 -10 0 -5 22 -10 48 -10 36 0
51 5 62 20 8 11 22 20 32 20 10 0 18 7 18 16 0 9 14 29 30 44 17 15 30 35 30
44 0 9 5 16 10 16 6 0 10 77 10 210 0 203 -1 210 -20 210 -11 0 -20 -4 -20
-10z"/>
<path d="M4543 7095 c-13 -13 -23 -31 -23 -40 0 -8 -4 -15 -10 -15 -5 0 -10
-13 -10 -30 0 -16 -4 -30 -10 -30 -6 0 -10 -27 -10 -60 0 -33 -4 -60 -10 -60
-6 0 -10 -37 -10 -90 l0 -90 160 0 160 0 0 60 c0 33 -4 60 -10 60 -6 0 -10 33
-10 80 0 47 -4 80 -10 80 -5 0 -10 14 -10 30 0 17 -4 30 -10 30 -5 0 -10 7
-10 15 0 9 -16 31 -35 50 -29 29 -41 35 -77 34 -32 0 -49 -6 -65 -24z"/>
<path d="M8710 6520 c-8 -11 -21 -20 -28 -20 -8 0 -27 -13 -42 -30 -15 -16
-33 -30 -39 -30 -15 0 -61 -46 -61 -61 0 -6 -13 -24 -30 -39 -16 -15 -30 -35
-30 -44 0 -9 -4 -16 -10 -16 -5 0 -10 -9 -10 -20 0 -11 -4 -20 -10 -20 -6 0
-10 -40 -10 -100 0 -60 4 -100 10 -100 6 0 10 -7 10 -16 0 -20 24 -44 44 -44
9 0 16 -4 16 -10 0 -5 23 -10 50 -10 28 0 50 5 50 10 0 6 7 10 15 10 19 0 65
44 65 62 0 8 9 20 20 28 11 8 20 22 20 32 0 10 5 18 10 18 6 0 10 77 10 210 0
195 -1 210 -18 210 -10 0 -24 -9 -32 -20z"/>
<path d="M11840 6530 c0 -5 -8 -10 -18 -10 -10 0 -24 -9 -32 -20 -8 -11 -20
-20 -27 -20 -17 0 -143 -126 -143 -143 0 -7 -9 -19 -20 -27 -11 -8 -20 -22
-20 -32 0 -10 -4 -18 -10 -18 -5 0 -10 -13 -10 -30 0 -16 -4 -30 -10 -30 -6 0
-10 -27 -10 -60 0 -33 4 -60 10 -60 6 0 10 -11 10 -25 0 -29 40 -75 65 -75 8
0 15 -4 15 -10 0 -5 18 -10 40 -10 22 0 40 5 40 10 0 6 7 10 15 10 20 0 105
85 105 105 0 8 5 15 10 15 6 0 10 9 10 20 0 11 5 20 10 20 6 0 10 73 10 200 0
193 -1 200 -20 200 -11 0 -20 -4 -20 -10z"/>
<path d="M5460 4150 l0 -150 25 0 c38 0 75 42 75 85 0 19 5 35 10 35 6 0 10 9
10 20 0 11 -4 20 -10 20 -5 0 -10 20 -10 45 0 54 -33 95 -75 95 l-25 0 0 -150z"/>
<path d="M6360 1870 c0 -27 -4 -50 -10 -50 -6 0 -10 -27 -10 -60 0 -33 -4 -60
-10 -60 -6 0 -10 -27 -10 -60 0 -33 -4 -60 -10 -60 -5 0 -10 -4 -10 -10 0 -6
30 -10 70 -10 l70 0 0 30 c0 17 -4 30 -10 30 -5 0 -10 23 -10 50 0 28 -4 50
-10 50 -6 0 -10 27 -10 60 0 33 -4 60 -10 60 -5 0 -10 18 -10 40 0 22 -4 40
-10 40 -5 0 -10 -22 -10 -50z"/>
<path d="M6840 1910 c0 -93 4 -150 10 -150 6 0 10 5 10 10 0 6 7 10 16 10 20
0 44 24 44 44 0 9 5 16 10 16 6 0 10 30 10 70 0 40 -4 70 -10 70 -5 0 -10 12
-10 26 0 33 -21 54 -54 54 l-26 0 0 -150z"/>
<path d="M0 32 c0 -30 2 -32 37 -32 l37 0 -24 16 c-14 10 -31 24 -37 32 -11
13 -13 11 -13 -16z"/>
</g>
</svg>
